<?xml version="1.0" encoding="utf-8"?>
<!-- Generator: Adobe Illustrator 27.5.0, SVG Export Plug-In . SVG Version: 6.00 Build 0)  -->
<svg version="1.1" xmlns="http://www.w3.org/2000/svg" xmlns:xlink="http://www.w3.org/1999/xlink" x="0px" y="0px"
	 viewBox="0 0 500 500" style="enable-background:new 0 0 500 500;" xml:space="preserve">
<g id="BACKGROUND">
	<rect style="fill:#172C51;" width="500" height="500"/>
</g>
<g id="OBJECTS">
	<g>
		<g>
			
				<ellipse transform="matrix(0.0028 -1 1 0.0028 -43.6373 568.1588)" style="fill:#4AC1DD;" cx="263.067" cy="305.96" rx="115.726" ry="199.794"/>
		</g>
		<g>
			<g>
				<polygon style="fill:#E5E5E5;" points="217,165.027 147.94,204.374 106.162,180.253 175.222,140.906 				"/>
			</g>
			<g>
				<polygon style="fill:#EAEAEA;" points="217,165.027 216.863,213.426 147.802,252.773 147.94,204.374 				"/>
			</g>
			<g>
				<polygon style="fill:#F9F9F9;" points="147.94,204.374 147.802,252.773 106.025,228.653 106.162,180.253 				"/>
			</g>
			<g>
				<g>
					<polygon style="fill:#0A8E74;" points="173.198,167.307 167.299,170.735 167.292,173.141 173.191,169.712 					"/>
					<polygon style="fill:#0A8E74;" points="154.53,170.735 148.593,167.307 148.587,169.712 154.523,173.14 					"/>
					<polygon style="fill:#0A8E74;" points="166.874,177.861 160.936,174.433 155.037,177.861 148.631,174.163 148.624,176.568 
						155.03,180.267 160.929,176.838 166.867,180.266 173.23,176.569 173.237,174.163 					"/>
				</g>
				<g>
					<polygon style="fill:#05A889;" points="173.198,167.307 167.299,170.735 173.237,174.163 166.873,177.861 160.936,174.433 
						155.037,177.861 148.631,174.163 154.53,170.735 148.593,167.307 154.957,163.609 160.893,167.037 166.792,163.609 					"/>
				</g>
			</g>
			<g>
				<g>
					<polygon style="fill:#F2F2F2;" points="182.021,212.79 182.04,219.613 184.12,220.821 184.1,213.999 					"/>
					<polygon style="fill:#F2F2F2;" points="194.343,198.304 188.406,201.732 190.485,202.94 196.422,199.513 					"/>
					<polygon style="fill:#0A8E74;" points="184.08,206.639 184.06,199.816 190.466,196.117 188.386,194.909 181.981,198.607 
						182,205.43 176.062,208.858 176.083,216.218 178.163,217.427 178.142,210.067 					"/>
				</g>
				<g>
					<polygon style="fill:#05A889;" points="190.466,196.117 190.485,202.94 196.422,199.513 196.443,206.872 190.506,210.3 
						190.525,217.123 184.12,220.821 184.1,213.999 178.163,217.427 178.142,210.067 184.079,206.639 184.06,199.816 					"/>
				</g>
			</g>
			<g>
				<g>
					<polygon style="fill:#F2F2F2;" points="131.214,221.438 131.195,228.261 129.115,229.469 129.134,222.646 					"/>
					<polygon style="fill:#0A8E74;" points="118.892,206.952 124.829,210.38 122.75,211.588 116.813,208.161 					"/>
					<polygon style="fill:#0A8E74;" points="129.155,215.287 129.175,208.464 122.769,204.766 124.848,203.557 131.254,207.255 
						131.235,214.078 137.173,217.507 137.152,224.866 135.072,226.075 135.093,218.715 					"/>
				</g>
				<g>
					<polygon style="fill:#05A889;" points="122.769,204.766 122.75,211.588 116.813,208.161 116.792,215.52 122.729,218.948 
						122.709,225.771 129.115,229.469 129.134,222.646 135.072,226.075 135.093,218.715 129.155,215.287 129.175,208.464 					"/>
				</g>
			</g>
		</g>
		<g>
			<g>
				<path style="fill:#DBDBDB;" d="M383.227,312.168l-161.663-93.513c-4.296-2.48-11.241-2.487-15.521-0.006l-103.597,60.094
					c-4.269,2.482-4.257,6.503,0.033,8.988l83.321,48.188l0.245,0.142l10.525,6.087l0,0l67.585,39.089
					c4.291,2.483,11.234,2.491,15.509,0.014l103.602-60.098C387.542,318.675,387.524,314.649,383.227,312.168z"/>
				<path style="fill:#C6C6C6;" d="M360.368,315.075l-23.433-13.557l-92.623-53.571l-27.761-16.06c-1.049-0.606-2.741-0.606-3.784,0
					l-59.615,34.577c-1.042,0.606-1.037,1.585,0.013,2.191l20.416,11.813l101.063,58.452l22.36,12.929
					c1.039,0.6,2.723,0.598,3.767-0.002l59.611-34.58C361.424,316.66,361.417,315.681,360.368,315.075z"/>
				<path style="fill:#C6C6C6;" d="M243.923,326.127l-45.967-26.587l-0.206-0.118c-1.191-0.689-3.088-0.693-4.248-0.018l-27.58,16
					c-0.567,0.332-0.877,0.763-0.874,1.226c0.003,0.463,0.323,0.898,1.101,1.348l45.972,26.596c1.167,0.673,3.07,0.673,4.23,0
					l27.58-16.001c0.562-0.326,0.877-0.761,0.874-1.224C244.802,326.886,244.488,326.455,243.923,326.127z"/>
				<g>
					<polygon style="fill:#474A52;" points="228.787,249.341 234.425,246.071 225.455,240.886 219.816,244.156 					"/>
					<polygon style="fill:#474A52;" points="209.715,250.088 218.692,255.283 227.265,250.308 218.288,245.112 					"/>
					<polygon style="fill:#474A52;" points="219.563,267.053 227.685,271.757 235.778,267.067 227.643,262.365 					"/>
					<polygon style="fill:#474A52;" points="288.981,284.157 294.62,280.887 285.654,275.704 280.016,278.974 					"/>
					<polygon style="fill:#474A52;" points="265.535,293.644 273.663,298.35 281.749,293.657 273.616,288.955 					"/>
					<polygon style="fill:#474A52;" points="319.087,301.573 324.725,298.301 315.768,293.116 310.122,296.39 					"/>
					<polygon style="fill:#474A52;" points="329.158,307.395 334.798,304.125 325.827,298.938 320.195,302.212 					"/>
					<polygon style="fill:#474A52;" points="303.067,317.396 294.934,312.694 286.854,317.382 294.98,322.082 					"/>
					<polygon style="fill:#474A52;" points="247.07,282.968 255.203,287.672 263.289,282.98 255.156,278.276 					"/>
					<polygon style="fill:#474A52;" points="211.154,287.57 202.002,292.88 257.999,325.266 267.146,319.958 					"/>
					<polygon style="fill:#474A52;" points="238.805,255.14 244.45,251.868 235.486,246.685 229.847,249.955 					"/>
					<polygon style="fill:#474A52;" points="268.929,272.56 274.569,269.289 265.604,264.107 259.965,267.377 					"/>
					<polygon style="fill:#474A52;" points="168.005,262.61 158.846,267.918 168.23,273.342 177.382,268.038 					"/>
					<polygon style="fill:#474A52;" points="202.212,270.59 178.17,256.684 170.083,261.376 194.125,275.282 					"/>
					<polygon style="fill:#474A52;" points="228.77,272.383 236.902,277.085 244.99,272.393 236.856,267.69 					"/>
					<polygon style="fill:#474A52;" points="219.716,278.552 227.808,273.864 219.675,269.16 211.593,273.85 					"/>
					<polygon style="fill:#474A52;" points="237.976,277.705 246.103,282.405 254.183,277.715 246.056,273.017 					"/>
					<polygon style="fill:#474A52;" points="237.173,279.284 229.04,274.582 220.959,279.27 229.093,283.973 					"/>
					<polygon style="fill:#474A52;" points="259.885,279.106 268.866,284.3 277.433,279.327 268.457,274.131 					"/>
					<polygon style="fill:#474A52;" points="221.691,281.856 213.197,276.946 205.117,281.636 213.604,286.55 					"/>
					<polygon style="fill:#474A52;" points="230.992,287.241 222.504,282.327 214.417,287.019 222.911,291.929 					"/>
					<polygon style="fill:#474A52;" points="255.94,290.138 247.811,285.432 239.725,290.126 247.854,294.825 					"/>
					<polygon style="fill:#474A52;" points="280.036,290.762 289.013,295.956 297.585,290.983 288.608,285.787 					"/>
					<polygon style="fill:#474A52;" points="300.392,304.441 292.258,299.738 284.178,304.427 292.306,309.133 					"/>
					<polygon style="fill:#474A52;" points="293.372,309.749 301.506,314.453 309.593,309.759 301.46,305.057 					"/>
					<polygon style="fill:#474A52;" points="293.568,311.903 285.444,307.201 277.352,311.889 285.486,316.593 					"/>
					<polygon style="fill:#474A52;" points="328.046,320.434 319.913,315.732 311.831,320.421 319.959,325.127 					"/>
					<polygon style="fill:#474A52;" points="296.448,325.099 287.961,320.185 279.875,324.877 288.356,329.788 					"/>
					<polygon style="fill:#474A52;" points="268.395,320.679 259.249,325.988 268.621,331.412 277.773,326.1 					"/>
					<polygon style="fill:#474A52;" points="306.05,328.485 319.475,336.251 327.556,331.561 314.13,323.797 					"/>
					<polygon style="fill:#474A52;" points="279.045,326.835 269.894,332.147 279.271,337.568 288.418,332.259 					"/>
					<polygon style="fill:#474A52;" points="301.277,339.698 295.702,336.471 291.346,338.996 296.927,342.225 					"/>
					<polygon style="fill:#474A52;" points="290.901,339.255 286.55,341.777 292.132,345.006 296.482,342.486 					"/>
					<polygon style="fill:#474A52;" points="224.4,240.27 215.435,235.087 209.796,238.358 218.755,243.544 					"/>
					<polygon style="fill:#474A52;" points="217.168,244.466 208.186,239.274 199.614,244.249 208.589,249.437 					"/>
					<polygon style="fill:#474A52;" points="216.286,255.793 197.968,245.198 189.887,249.886 208.2,260.479 					"/>
					<polygon style="fill:#474A52;" points="248.837,260.939 254.477,257.668 245.511,252.486 239.873,255.756 					"/>
					<polygon style="fill:#474A52;" points="219.711,255.872 228.694,261.064 237.266,256.097 228.291,250.9 					"/>
					<polygon style="fill:#474A52;" points="218.49,266.435 226.571,261.745 218.449,257.043 210.362,261.735 					"/>
					<polygon style="fill:#474A52;" points="258.905,266.765 264.548,263.491 255.585,258.308 249.946,261.578 					"/>
					<polygon style="fill:#474A52;" points="229.819,261.715 238.79,266.908 247.368,261.935 238.387,256.742 					"/>
					<polygon style="fill:#474A52;" points="208.6,262.753 188.124,250.912 180.038,255.605 200.514,267.445 					"/>
					<polygon style="fill:#474A52;" points="239.722,267.445 248.704,272.638 257.271,267.667 248.3,262.474 					"/>
					<polygon style="fill:#474A52;" points="202.199,268.418 210.333,273.122 218.413,268.432 210.286,263.726 					"/>
					<polygon style="fill:#474A52;" points="278.955,278.36 284.6,275.088 275.636,269.905 269.996,273.176 					"/>
					<polygon style="fill:#474A52;" points="249.823,273.291 258.801,278.482 267.379,273.509 258.397,268.316 					"/>
					<polygon style="fill:#474A52;" points="178.743,268.824 169.586,274.133 178.962,279.553 188.121,274.245 					"/>
					<polygon style="fill:#474A52;" points="204.233,281.124 212.319,276.44 203.826,271.522 195.74,276.214 					"/>
					<polygon style="fill:#474A52;" points="189.541,275.072 180.395,280.379 189.766,285.805 198.925,280.495 					"/>
					<polygon style="fill:#474A52;" points="246.55,284.704 238.418,280.002 230.331,284.694 238.464,289.397 					"/>
					<polygon style="fill:#474A52;" points="299.007,289.96 304.651,286.684 295.686,281.503 290.042,284.775 					"/>
					<polygon style="fill:#474A52;" points="269.986,284.945 278.963,290.142 287.535,285.167 278.559,279.977 					"/>
					<polygon style="fill:#474A52;" points="200.286,281.281 191.128,286.589 200.51,292.013 209.657,286.705 					"/>
					<polygon style="fill:#474A52;" points="256.27,288.288 264.403,292.99 272.486,288.3 264.357,283.596 					"/>
					<polygon style="fill:#474A52;" points="309.061,295.77 314.701,292.5 305.73,287.315 300.096,290.587 					"/>
					<polygon style="fill:#474A52;" points="240.434,292.698 231.945,287.79 223.86,292.476 232.347,297.39 					"/>
					<polygon style="fill:#474A52;" points="265.311,295.556 257.177,290.852 249.096,295.543 257.225,300.249 					"/>
					<polygon style="fill:#474A52;" points="290.133,296.604 299.114,301.796 307.686,296.822 298.71,291.633 					"/>
					<polygon style="fill:#474A52;" points="249.733,298.073 241.246,293.167 233.154,297.857 241.647,302.767 					"/>
					<polygon style="fill:#474A52;" points="274.73,298.966 282.864,303.668 290.951,298.975 282.816,294.273 					"/>
					<polygon style="fill:#474A52;" points="274.812,301.049 266.685,296.349 258.599,301.041 266.725,305.739 					"/>
					<polygon style="fill:#474A52;" points="308.612,297.357 300.039,302.33 309.016,307.526 317.588,302.554 					"/>
					<polygon style="fill:#474A52;" points="259.105,303.499 250.619,298.591 242.526,303.281 251.013,308.187 					"/>
					<polygon style="fill:#474A52;" points="284.201,306.483 276.068,301.781 267.986,306.469 276.12,311.171 					"/>
					<polygon style="fill:#474A52;" points="339.184,313.196 344.824,309.926 335.865,304.741 330.22,308.013 					"/>
					<polygon style="fill:#474A52;" points="318.714,303.201 310.136,308.174 319.118,313.366 327.697,308.393 					"/>
					<polygon style="fill:#474A52;" points="268.412,308.878 259.919,303.968 251.833,308.66 260.318,313.566 					"/>
					<polygon style="fill:#474A52;" points="345.891,310.542 340.252,313.812 349.211,318.998 354.855,315.724 					"/>
					<polygon style="fill:#474A52;" points="277.776,314.298 269.284,309.388 261.204,314.078 269.69,318.99 					"/>
					<polygon style="fill:#474A52;" points="318.846,315.116 310.712,310.412 302.632,315.102 310.765,319.805 					"/>
					<polygon style="fill:#474A52;" points="287.077,319.675 278.59,314.769 270.498,319.457 278.99,324.367 					"/>
					<polygon style="fill:#474A52;" points="320.361,314.084 339.051,324.895 347.624,319.92 328.929,309.113 					"/>
					<polygon style="fill:#474A52;" points="312.439,322.812 304.305,318.11 296.218,322.802 304.353,327.504 					"/>
					<polygon style="fill:#474A52;" points="321.192,325.837 329.319,330.537 337.405,325.852 329.272,321.148 					"/>
					<polygon style="fill:#474A52;" points="284.771,335.71 280.415,338.235 286.001,341.461 290.352,338.939 					"/>
					<polygon style="fill:#474A52;" points="290.519,331.037 309.516,342.025 317.608,337.336 298.612,326.349 					"/>
					<polygon style="fill:#474A52;" points="292.673,345.326 298.262,348.559 302.612,346.03 297.03,342.801 					"/>
				</g>
				<path style="fill:#474A52;" d="M391.844,185.9c0.02-4.934-3.452-10.955-7.748-13.435L222.279,78.872
					c-4.296-2.487-7.797-0.499-7.817,4.435l-0.433,119.656c0,0.146,0.003,0.293,0.008,0.441l-0.008,2.304
					c-0.014,4.937,3.452,10.955,7.749,13.442l161.815,93.594c4.296,2.482,7.798,0.5,7.817-4.435l0.434-119.662
					c0.001-0.153-0.002-0.308-0.008-0.463L391.844,185.9z"/>
				<polygon style="fill:#C0EEFF;" points="380.995,183.347 225.196,93.397 224.878,205.523 224.889,205.529 224.878,209.268 
					380.678,299.219 380.995,187.093 380.984,187.087 				"/>
				<path style="fill:#474A52;" d="M305.626,132.285l-4.573-2.64c-0.724-0.418-1.315-0.081-1.319,0.758
					c-0.001,0.833,0.586,1.851,1.311,2.269l4.574,2.64c0.731,0.422,1.321,0.085,1.325-0.748
					C306.946,133.725,306.358,132.707,305.626,132.285z"/>
				<path style="fill:#CACACA;" d="M394.167,184.554c0.02-4.935-3.453-10.955-7.75-13.436L224.602,77.524
					c-2.165-1.253-4.128-1.37-5.545-0.547c-0.664,0.385-1.328,0.771-1.992,1.157l0.009,0.016c1.383-0.624,3.208-0.436,5.204,0.72
					l161.817,93.594c4.296,2.48,7.767,8.501,7.748,13.435l-0.008,2.282c0.006,0.155,0.009,0.31,0.008,0.463l-0.434,119.662
					c-0.01,2.588-0.979,4.362-2.517,5.108l0.02,0.006c0.849-0.494,1.701-0.989,2.55-1.483c1.395-0.81,2.261-2.53,2.27-4.979
					l0.435-119.661c0.001-0.154-0.002-0.309-0.008-0.465L394.167,184.554z"/>
				<g>
					<path style="fill:#B5B5B5;" d="M173.002,326.88l23.557,13.628c0.785,0.453,0.795,1.183,0.01,1.64l-10.525-6.087l-15.868-9.179
						C170.952,326.433,172.218,326.427,173.002,326.88z"/>
				</g>
				<path style="fill:#CACACA;" d="M384.651,320.171c-0.002,0.001-0.004,0.003-0.005,0.005c-0.097,0.085-0.198,0.169-0.303,0.251
					c-0.015,0.012-0.031,0.023-0.047,0.035c-0.093,0.072-0.188,0.144-0.287,0.214c-0.035,0.025-0.073,0.049-0.109,0.074
					c-0.082,0.056-0.164,0.113-0.25,0.168c-0.124,0.079-0.252,0.158-0.384,0.234L279.663,381.25
					c-4.275,2.478-11.218,2.47-15.509-0.014l-67.585-39.089l0,0l-10.525-6.087l-0.245-0.142l-3.52-2.036l-0.002,0l-79.799-46.152
					c-2.119-1.227-3.192-2.829-3.223-4.435h-0.008c-0.006,2.366-0.013,4.734-0.02,7.099c-0.004,1.634,1.071,3.27,3.226,4.52
					l83.566,48.33l0,0v0l10.524,6.087l67.585,39.088c0.258,0.149,0.528,0.288,0.804,0.422c0.101,0.047,0.208,0.088,0.31,0.133
					c0.159,0.071,0.315,0.145,0.479,0.208c0.016,0.008,0.033,0.012,0.049,0.018c0.383,0.149,0.776,0.281,1.18,0.398
					c0.035,0.012,0.068,0.026,0.103,0.035c0.094,0.027,0.192,0.045,0.286,0.071c0.222,0.059,0.444,0.114,0.671,0.165
					c0.063,0.014,0.124,0.031,0.187,0.045c0.087,0.018,0.178,0.029,0.266,0.047c0.193,0.035,0.386,0.071,0.582,0.102
					c0.081,0.012,0.16,0.029,0.24,0.041c0.082,0.012,0.167,0.016,0.248,0.027c0.185,0.024,0.369,0.043,0.554,0.061
					c0.088,0.01,0.177,0.023,0.265,0.029c0.077,0.008,0.153,0.008,0.23,0.014c0.191,0.014,0.382,0.022,0.575,0.03
					c0.092,0.004,0.183,0.012,0.276,0.016c0.068,0.002,0.136-0.002,0.205-0.002c0.212,0.004,0.422,0.002,0.634-0.004
					c0.095,0,0.19,0.004,0.284,0c0.053-0.002,0.104-0.008,0.156-0.012c0.267-0.01,0.533-0.029,0.797-0.051
					c0.086-0.008,0.177-0.01,0.264-0.018c0.025-0.004,0.05-0.008,0.076-0.012c0.422-0.043,0.839-0.1,1.251-0.175
					c0.023-0.002,0.047-0.004,0.069-0.008c0.122-0.022,0.24-0.053,0.361-0.079c0.198-0.039,0.396-0.078,0.59-0.126
					c0.145-0.033,0.286-0.076,0.428-0.114c0.194-0.053,0.388-0.106,0.578-0.165c0.04-0.014,0.081-0.022,0.12-0.035
					c0.064-0.021,0.121-0.047,0.183-0.069c0.296-0.102,0.586-0.21,0.868-0.33c0.103-0.043,0.207-0.084,0.309-0.132
					c0.357-0.159,0.704-0.329,1.032-0.52l103.602-60.098c0.049-0.029,0.097-0.057,0.143-0.086c0.098-0.057,0.181-0.122,0.273-0.181
					c0.137-0.088,0.277-0.176,0.404-0.269c0.104-0.077,0.198-0.155,0.296-0.234c0.12-0.096,0.24-0.19,0.349-0.288
					c0.022-0.02,0.047-0.037,0.068-0.057c0.04-0.037,0.07-0.079,0.109-0.116c0.171-0.167,0.329-0.335,0.472-0.508
					c0.029-0.035,0.07-0.071,0.098-0.106c0.028-0.035,0.046-0.073,0.072-0.108c0.095-0.125,0.178-0.253,0.259-0.383
					c0.033-0.055,0.08-0.108,0.112-0.165c0.015-0.027,0.024-0.057,0.039-0.084c0.059-0.11,0.108-0.222,0.156-0.333
					c0.03-0.069,0.07-0.135,0.095-0.204c0.008-0.024,0.012-0.045,0.02-0.069c0.038-0.106,0.065-0.214,0.092-0.32
					c0.02-0.076,0.051-0.153,0.067-0.229c0.004-0.022,0.003-0.041,0.007-0.063c0.02-0.106,0.026-0.216,0.036-0.324
					c0.008-0.081,0.026-0.161,0.028-0.243c0.001-0.031,0.001-0.063,0.001-0.096c0.007-2.354,0.014-4.707,0.02-7.061
					C386.414,317.985,385.814,319.154,384.651,320.171z"/>
			</g>
			<g>
				<polygon style="fill:#A2E3F4;" points="295.467,146.248 295.35,187.67 240.506,156.006 240.623,114.584 				"/>
			</g>
			<g>
				<polygon style="fill:#A2E3F4;" points="295.467,196.311 295.35,237.733 240.506,206.069 240.623,164.647 				"/>
			</g>
			<g>
				<polygon style="fill:#A2E3F4;" points="365.003,186.881 364.885,228.303 310.041,196.639 310.159,155.217 				"/>
			</g>
			<g>
				<polygon style="fill:#A2E3F4;" points="365.003,236.943 364.885,278.366 310.041,246.702 310.159,205.279 				"/>
			</g>
		</g>
		<g>
			<g>
				<polygon style="fill:#E83628;" points="158.249,109.8 162.038,107.598 209.596,135.056 205.807,137.258 				"/>
			</g>
			<g>
				<polygon style="fill:#E83628;" points="244.507,163.214 248.295,161.012 239.119,193.75 235.33,195.952 				"/>
			</g>
			<g>
				<polygon style="fill:#E83628;" points="219.83,115.738 223.619,113.536 211.692,139.878 207.903,142.08 				"/>
			</g>
			<g>
				<polygon style="fill:#E83628;" points="220.568,104.66 224.357,102.458 239.279,179.688 235.49,181.889 				"/>
			</g>
			<g>
				<polygon style="fill:#E83628;" points="242.123,158.224 245.912,156.022 260.738,164.582 256.949,166.784 				"/>
			</g>
			<g>
				<polygon style="fill:#E83628;" points="263.431,159.771 267.22,157.569 262.985,169.492 259.196,171.694 				"/>
			</g>
			<g>
				<polygon style="fill:#E83628;" points="263.232,149.089 267.021,146.887 274.223,172.368 270.434,174.57 				"/>
			</g>
			<g>
				<polygon style="fill:#E83628;" points="282.785,181.701 286.574,179.499 291.146,207.171 287.357,209.373 				"/>
			</g>
			<g>
				<polygon style="fill:#E83628;" points="270.434,174.57 274.223,172.368 286.574,179.499 282.785,181.701 				"/>
			</g>
			<g>
				<polygon style="fill:#E83628;" points="296.559,175.265 300.348,173.063 291.421,226.406 287.632,228.608 				"/>
			</g>
			<g>
				<polygon style="fill:#E83628;" points="296.119,157.03 299.908,154.828 306.51,191.009 302.721,193.211 				"/>
			</g>
			<g>
				<polygon style="fill:#E83628;" points="302.721,193.211 306.51,191.009 341.341,211.118 337.552,213.32 				"/>
			</g>
			<g>
				<polygon style="fill:#E83628;" points="342.72,206.42 346.509,204.218 343.845,216.177 340.056,218.379 				"/>
			</g>
			<g>
				<polygon style="fill:#E83628;" points="349.43,220.178 353.219,217.976 363.691,224.023 359.902,226.224 				"/>
			</g>
			<g>
				<polygon style="fill:#E83628;" points="359.902,226.224 363.691,224.023 366.708,236.141 362.919,238.342 				"/>
			</g>
			<g>
				<polygon style="fill:#E83628;" points="341.934,193.654 345.723,191.452 353.219,217.976 349.43,220.178 				"/>
			</g>
			<g>
				<polygon style="fill:#E83628;" points="367.78,234.385 371.569,232.183 367.008,248.734 363.219,250.936 				"/>
			</g>
			<g>
				<polygon style="fill:#E83628;" points="365.386,229.39 369.175,227.188 387.339,237.676 383.55,239.878 				"/>
			</g>
			<g>
				<polygon style="fill:#E83628;" points="411.18,259.442 414.969,257.24 408.184,281.469 404.395,283.671 				"/>
			</g>
			<g>
				<polygon style="fill:#E83628;" points="391.943,217.4 395.732,215.199 389.864,242.746 386.075,244.948 				"/>
			</g>
			<g>
				<polygon style="fill:#E83628;" points="391.782,201.217 395.571,199.015 408.389,267.229 404.6,269.431 				"/>
			</g>
			<g>
				<polygon style="fill:#E83628;" points="457.444,282.54 461.233,280.338 461.223,283.945 457.434,286.147 				"/>
			</g>
			<g>
				<polygon style="fill:#E83628;" points="408.796,254.453 412.585,252.251 461.233,280.338 457.444,282.54 				"/>
			</g>
			<g>
				<polygon style="fill:#F94632;" points="391.782,201.217 404.6,269.431 408.796,254.453 457.444,282.54 457.434,286.147 
					411.18,259.442 404.395,283.671 391.943,217.4 386.075,244.948 367.78,234.385 363.219,250.936 357.639,228.53 347.278,222.548 
					342.72,206.42 340.056,218.379 300.232,195.387 296.559,175.265 287.632,228.608 280.235,183.841 268.281,176.94 
					263.431,159.771 259.196,171.694 244.507,163.214 235.33,195.952 219.83,115.738 207.903,142.08 158.238,113.407 158.249,109.8 
					205.807,137.258 220.568,104.66 235.49,181.889 242.123,158.224 256.949,166.784 263.232,149.089 270.434,174.57 
					282.785,181.701 287.357,209.373 296.119,157.03 302.721,193.211 337.552,213.32 341.934,193.654 349.43,220.178 
					359.902,226.224 362.919,238.342 365.386,229.39 383.55,239.878 				"/>
			</g>
		</g>
		<g>
			<g>
				<g>
					
						<ellipse transform="matrix(0.8646 -0.5025 0.5025 0.8646 -8.9153 167.1322)" style="fill:#1C9AE9;" cx="305.656" cy="100.108" rx="37.585" ry="64.888"/>
				</g>
				<path style="fill:#098DCE;" d="M307.568,46.19c-12.793-7.386-24.384-8.071-32.754-3.207l-1.762,1.024
					c8.37-4.864,19.961-4.179,32.754,3.207c25.424,14.678,45.965,50.259,45.882,79.47c-0.041,14.512-5.165,24.723-13.428,29.525
					l1.762-1.024c8.263-4.802,13.387-15.013,13.428-29.525C353.533,96.449,332.992,60.869,307.568,46.19z"/>
			</g>
			<g>
				<g style="enable-background:new    ;">
					<g>
						<path style="fill:#3E2217;" d="M296.807,72.614v0.002l-0.022-0.013C296.792,72.607,296.799,72.61,296.807,72.614z"/>
					</g>
					<g>
						<path style="fill:#FFE9D4;" d="M305.105,71.302c0.118,0.17,2.368,3.39,4.117,5.09c-0.037-0.067-0.746-1.338-0.95-2.575
							c0.071,0.157,1.419,3.136,4.704,6.151c-0.025-0.04-0.497-0.797-1.037-2.915c0.09,0.187,1.806,3.748,4.615,6.963l0.23,0.127
							c0.953,0.55,1.704,1.826,1.72,2.896l0.014,0.86c0.022,1.354-0.847,1.979-1.979,1.485l-0.001,0.246
							c-0.007,2.571-0.653,4.721-1.861,6.197c-0.771,0.942-1.716,1.63-2.797,2.052c-0.264,0.097-0.533,0.188-0.811,0.26
							c-1.293,0.328-2.851-0.005-4.442-0.924c-1.591-0.919-3.146-2.382-4.431-4.199c-0.279-0.394-0.546-0.795-0.807-1.201
							c-1.077-1.662-2.015-3.438-2.777-5.265c-1.196-2.864-1.827-5.75-1.82-8.322l0.001-0.246c-1.133-0.814-1.995-2.438-1.965-3.762
							l0.018-0.842c0.023-1.037,0.763-1.445,1.667-0.941c0,0.006,0.041,0.033,0.119,0.078c0.041,0.024,0.093,0.053,0.155,0.085
							C297.813,73.138,301.262,74.515,305.105,71.302z"/>
					</g>
					<g>
						<path style="fill:#3E2217;" d="M317.24,76.018l-0.688,7.999c-2.81-3.215-4.525-6.776-4.615-6.963
							c0.541,2.118,1.013,2.876,1.037,2.915c-3.285-3.015-4.633-5.994-4.704-6.151c0.204,1.237,0.913,2.508,0.95,2.575
							c-1.749-1.701-3.998-4.921-4.117-5.09c-3.842,3.212-7.292,1.836-8.298,1.312c-0.084-0.044-0.135-0.073-0.177-0.097
							c-0.078-0.045-0.117-0.071-0.119-0.072l-0.384-8.197L317.24,76.018z"/>
					</g>
				</g>
				<g>
					<polygon style="fill:#FFFFFF;" points="301.372,97.024 301.333,110.759 306.117,113.521 301.333,110.759 301.292,125.311 
						306.44,128.284 299.11,124.09 294.732,107.376 297.299,106.56 294.748,101.674 295.548,96.897 					"/>
				</g>
				<g>
					<polygon style="fill:#F94632;" points="311.825,116.817 311.784,131.369 306.634,128.395 306.44,128.284 301.292,125.311 
						301.333,110.759 306.117,113.521 307.041,114.055 					"/>
				</g>
				<g>
					<path style="fill:#FFE9D4;" d="M311.879,97.874l-0.015,5.207l-0.039,13.736l-4.784-2.762l-0.463-0.267l-0.462-0.266
						l-4.783-2.762l0.039-13.736l0.015-5.2c0.261,0.399,0.528,0.8,0.807,1.194c1.285,1.817,2.84,3.28,4.431,4.199
						c1.591,0.919,3.149,1.252,4.442,0.924C311.346,98.068,311.615,97.977,311.879,97.874z"/>
				</g>
				<g>
					<polygon style="fill:#FFFFFF;" points="311.864,103.081 317.668,109.667 318.44,115.353 315.87,117.282 318.424,121.055 
						313.964,132.666 306.633,128.433 311.784,131.369 311.825,116.817 307.041,114.055 311.825,116.817 					"/>
				</g>
				<g>
					<path style="fill:#EDEDED;" d="M311.864,103.081l7.023,7.969l6.118,6.943c1.449,1.643,2.579,3.696,3.178,5.763
						c1.167,4.028,2.98,11.261,3.651,19.228l-25.298-14.606l-25.298-14.606c0.714-7.168,2.563-12.286,3.75-14.955
						c0.607-1.371,1.746-2.113,3.199-2.081l6.127,0.134l1.233,0.027l-0.8,4.777l2.551,4.886l-2.567,0.816l4.378,16.714l7.331,4.233
						l0.193,0.073l7.33,4.271l4.46-11.611l-2.554-3.773l2.57-1.93l-0.772-5.685L311.864,103.081z"/>
				</g>
				<g>
					<path style="fill:#3E2217;" d="M306.722,58.072c12.032,6.961,15.218,24.497,15.198,35.64
						c-0.018,9.732-2.422,15.922-3.033,17.338l-7.023-7.969l0.015-5.201c1.082-0.422,2.027-1.111,2.797-2.052
						c1.208-1.476,1.854-3.625,1.861-6.197l0.001-0.246c1.132,0.494,2-0.131,1.979-1.485l-0.014-0.86
						c-0.016-1.07-0.767-2.346-1.684-2.876l-0.265-0.147l0.688-7.999l-21.114-11.769l0.384,8.191
						c-0.903-0.504-1.643-0.096-1.667,0.941l-0.018,0.842c-0.029,1.324,0.833,2.948,1.965,3.762l-0.001,0.246
						c-0.007,2.572,0.624,5.458,1.82,8.322c0.762,1.827,1.7,3.603,2.777,5.271l-0.015,5.2l-5.824-0.127l-1.233-0.026
						c-0.597-2.102-2.963-11.052-2.927-20.785C291.431,64.955,294.706,51.149,306.722,58.072z"/>
				</g>
			</g>
		</g>
		<g>
			<g style="enable-background:new    ;">
				<path style="fill:#1C9AE9;" d="M413.433,303.513l-0.124,43.735c-0.009,3.171-2.093,6.337-6.254,8.755
					c-8.379,4.87-22.01,4.872-30.445,0.002c-4.243-2.45-6.362-5.666-6.353-8.877l0.124-43.735c-0.009,3.211,2.11,6.427,6.353,8.877
					c8.434,4.87,22.065,4.867,30.445-0.002C411.34,309.849,413.424,306.683,413.433,303.513z"/>
				<path style="fill:#F94632;" d="M376.586,324.359l-0.043,15.247c0.186,0.807,1.191,2.025,3.192,3.18
					c3.097,1.788,7.513,2.814,12.113,2.814c4.599,0,8.996-1.023,12.066-2.807c2.169-1.26,3.142-2.6,3.145-3.369l0.042-14.966
					c-4.433,1.882-9.678,2.897-15.128,2.897C386.427,327.355,381.084,326.304,376.586,324.359z"/>
				<g>
					<path style="fill:#37B7F7;" d="M407.079,294.635c8.434,4.87,8.475,12.765,0.099,17.632c-8.379,4.87-22.01,4.872-30.445,0.002
						c-8.434-4.87-8.475-12.765-0.096-17.635C385.014,289.768,398.645,289.766,407.079,294.635z"/>
				</g>
				<path style="fill:#FFFFFF;" d="M388.512,329.75v13.615c1.09,0.12,2.208,0.182,3.337,0.182c1.171,0,2.328-0.067,3.454-0.195
					v-13.591c-1.098,0.085-2.209,0.13-3.329,0.13C390.808,329.891,389.653,329.842,388.512,329.75z"/>
				<path style="fill:#FFFFFF;" d="M383.188,338.366c2.799,0.6,5.76,0.919,8.785,0.919c2.98,0,5.895-0.308,8.653-0.892v-6.252
					c-2.758,0.583-5.673,0.892-8.653,0.892c-3.025,0-5.986-0.319-8.785-0.919V338.366z"/>
			</g>
			<g style="enable-background:new    ;">
				<path style="fill:#EAEAEA;" d="M401.284,296.205c-5.171,3.005-13.583,3.007-18.788,0.001c-2.618-1.512-3.926-3.496-3.92-5.478
					l-0.021,9.109c0.265,1.746,1.55,3.452,3.865,4.788c5.205,3.005,13.617,3.004,18.788-0.002c2.568-1.492,3.854-3.446,3.859-5.403
					l0.017-7.729C404.813,293.212,403.55,294.888,401.284,296.205z"/>
				<g>
					<path style="fill:#F4F4F4;" d="M401.223,285.324c5.205,3.005,5.23,7.877,0.061,10.881c-5.171,3.005-13.583,3.007-18.788,0.001
						c-5.205-3.005-5.23-7.878-0.059-10.883C387.606,282.32,396.018,282.319,401.223,285.324z"/>
				</g>
			</g>
		</g>
		<g>
			<path style="fill:#474A52;" d="M391.029,215.053l6.03,10.444l-5.915,3.371l-6.03-10.444c1.127-0.261,2.202-0.674,3.211-1.249
				C389.332,216.601,390.233,215.888,391.029,215.053z"/>
			<polygon style="fill:#383B42;" points="391.029,215.053 398.076,210.958 404.106,221.402 397.058,225.498 			"/>
			<polygon style="fill:#0089CE;" points="398.829,224.488 405.877,220.393 434.761,270.422 427.713,274.517 			"/>
			<polygon style="fill:#1C9AE9;" points="398.829,224.488 427.713,274.517 418.256,279.907 389.372,229.878 391.143,228.868 
				397.058,225.498 			"/>
			<path style="fill:#1C9AE9;" d="M388.435,177.83c-4.712-8.162-10.902-14.456-17.098-18.034
				c-6.197-3.578-12.401-4.439-17.144-1.736c-9.486,5.406-9.536,23.021-0.111,39.345c4.712,8.162,10.901,14.456,17.098,18.034
				c4.879,2.817,9.762,3.95,13.934,2.985c1.127-0.261,2.202-0.674,3.211-1.249c1.008-0.575,1.91-1.287,2.705-2.122
				C397.711,208.038,396.857,192.418,388.435,177.83z M384.521,210.591c-3.686,2.101-8.508,1.431-13.324-1.349
				c-4.816-2.781-9.626-7.672-13.289-14.016c-3.662-6.344-5.484-12.939-5.468-18.473c0.016-5.534,1.868-10.007,5.555-12.107
				c3.686-2.102,8.509-1.433,13.324,1.348c4.816,2.781,9.626,7.673,13.288,14.017c3.662,6.344,5.484,12.938,5.468,18.471
				C390.061,204.016,388.208,208.49,384.521,210.591z"/>
			<path style="fill:#C0EEFF;" d="M371.32,165.994c4.816,2.781,9.626,7.673,13.289,14.017c3.662,6.344,5.484,12.938,5.468,18.472
				c-0.016,5.534-1.868,10.007-5.555,12.109c-3.686,2.101-8.508,1.431-13.324-1.349c-4.816-2.781-9.626-7.672-13.289-14.016
				c-3.662-6.344-5.484-12.939-5.468-18.473c0.016-5.534,1.869-10.007,5.555-12.107C361.682,162.544,366.504,163.214,371.32,165.994
				z"/>
			<path style="fill:#0089CE;" d="M395.483,173.734c-4.712-8.162-10.901-14.456-17.098-18.034
				c-6.197-3.578-12.401-4.439-17.144-1.736l-7.048,4.096c4.743-2.703,10.948-1.842,17.144,1.736
				c6.197,3.578,12.386,9.872,17.098,18.034c8.421,14.588,9.276,30.208,2.593,37.223c-0.773,0.812-1.646,1.507-2.621,2.074
				l7.048-4.096c0.975-0.566,1.848-1.262,2.621-2.074C404.759,203.942,403.905,188.322,395.483,173.734z"/>
		</g>
		<g>
			<path style="fill:#FFFFFF;" d="M231.913,387.235c0.53-0.306,1.01-0.334,1.357-0.133l6.127,3.561
				c-0.347-0.202-0.827-0.173-1.357,0.133c-1.053,0.608-1.904,2.082-1.901,3.292c0.002,0.601,0.214,1.025,0.556,1.223l-6.127-3.561
				c-0.342-0.199-0.555-0.622-0.556-1.223C230.009,389.317,230.86,387.843,231.913,387.235z"/>
			<path style="fill:#FFFFFF;" d="M236.814,385.772c1.548-0.894,2.951-0.977,3.964-0.388l32.704,19.224
				c-1.013-0.589-2.415-0.506-3.964,0.388c-3.077,1.776-5.563,6.083-5.553,9.618c0.005,1.757,0.625,2.993,1.625,3.574
				l-32.704-19.224c-1-0.581-1.62-1.817-1.625-3.574C231.252,391.855,233.737,387.548,236.814,385.772z"/>
			<path style="fill:#F64A3B;" d="M237.186,386.415c0.753-0.435,1.489-0.665,2.128-0.665c0.41,0,0.777,0.093,1.091,0.276
				l24.701,14.574c-0.099,0.052-0.198,0.105-0.298,0.163c-3.729,2.153-6.752,7.388-6.74,11.671c0,0.184,0.008,0.362,0.02,0.536
				l-24.828-14.647c-0.806-0.468-1.252-1.51-1.256-2.934C231.995,392.095,234.319,388.07,237.186,386.415z"/>
			<path style="fill:#FFFFFF;" d="M269.518,404.996c-3.077,1.776-5.563,6.083-5.553,9.618c0.01,3.536,2.512,4.963,5.589,3.186
				c3.077-1.776,5.563-6.083,5.553-9.619C275.097,404.647,272.595,403.22,269.518,404.996z"/>
			<path style="fill:#FFFFFF;" d="M218.778,381.345c0.052-0.03,0.099-0.033,0.133-0.013l14.445,8.395
				c-0.034-0.02-0.081-0.017-0.133,0.013c-0.103,0.06-0.187,0.204-0.187,0.323c0,0.059,0.021,0.1,0.055,0.12l-14.445-8.395
				c-0.033-0.02-0.054-0.061-0.054-0.12C218.591,381.549,218.674,381.404,218.778,381.345z"/>
			<path style="fill:#1C9AE9;" d="M264.264,404.921c0.798-0.461,1.521-0.503,2.043-0.2l9.225,5.361
				c-0.522-0.303-1.245-0.261-2.043,0.2c-1.586,0.916-2.867,3.135-2.862,4.957c0.003,0.905,0.322,1.543,0.838,1.842l-9.225-5.361
				c-0.516-0.3-0.835-0.937-0.838-1.842C261.397,408.056,262.678,405.837,264.264,404.921z"/>
			<g>
				<path style="fill:#1C9AE9;" d="M273.373,404.743c2.181-1.259,4.158-1.376,5.586-0.546l1.18,0.686
					c-1.428-0.83-3.404-0.713-5.586,0.546c-4.336,2.504-7.841,8.573-7.827,13.555c0.007,2.475,0.881,4.216,2.29,5.035l-1.18-0.686
					c-1.409-0.819-2.283-2.56-2.29-5.035C265.533,413.317,269.037,407.247,273.373,404.743z"/>
				<path style="fill:#FFFFFF;" d="M274.553,405.429c-4.336,2.504-7.841,8.573-7.827,13.555c0.014,4.983,3.541,6.991,7.878,4.488
					c4.335-2.503,7.839-8.571,7.825-13.554C282.416,404.936,278.888,402.926,274.553,405.429z"/>
			</g>
			<path style="fill:#1C9AE9;" d="M275.843,412.42c0.798-0.461,1.521-0.503,2.043-0.2l9.225,5.361
				c-0.522-0.303-1.245-0.261-2.043,0.2c-1.586,0.916-2.867,3.135-2.862,4.957c0.003,0.905,0.322,1.542,0.838,1.842l-9.225-5.361
				c-0.516-0.3-0.835-0.937-0.838-1.842C272.976,415.555,274.257,413.336,275.843,412.42z"/>
			<g>
				<path style="fill:#1C9AE9;" d="M283.294,413.384c1.561-0.901,2.975-0.985,3.997-0.391l0.845,0.491
					c-1.022-0.594-2.436-0.51-3.997,0.391c-3.103,1.791-5.61,6.135-5.6,9.699c0.005,1.771,0.63,3.017,1.639,3.603l-0.844-0.491
					c-1.008-0.586-1.634-1.832-1.639-3.603C277.684,419.519,280.191,415.176,283.294,413.384z"/>
				<path style="fill:#FFFFFF;" d="M284.139,413.875c-3.103,1.791-5.61,6.135-5.6,9.699c0.01,3.566,2.534,5.003,5.637,3.211
					c3.102-1.791,5.61-6.133,5.599-9.699C289.765,413.523,287.241,412.084,284.139,413.875z"/>
			</g>
		</g>
		<g>
			<path style="fill:#E5E5E5;" d="M101.126,214.516L41.278,249.07l25.649,14.905l59.848-34.553L101.126,214.516z M67.896,253.96
				c-2.594,1.498-6.781,1.497-9.357,0.001c-2.577-1.497-2.563-3.923,0.03-5.421c2.592-1.496,6.78-1.496,9.357,0.001
				C70.502,250.038,70.488,252.463,67.896,253.96z M81.757,245.957c-2.592,1.497-6.781,1.497-9.356,0.001
				c-2.577-1.497-2.562-3.924,0.03-5.421c2.592-1.497,6.781-1.497,9.358,0C84.365,242.034,84.349,244.46,81.757,245.957z
				 M95.618,237.954c-2.592,1.497-6.78,1.497-9.355,0c-2.577-1.498-2.563-3.923,0.029-5.42c2.594-1.498,6.781-1.498,9.358,0
				C98.226,234.031,98.212,236.457,95.618,237.954z M109.481,229.951c-2.592,1.497-6.781,1.497-9.356,0.001
				c-2.577-1.498-2.562-3.924,0.03-5.421c2.592-1.497,6.781-1.498,9.358,0C112.088,226.028,112.073,228.454,109.481,229.951z"/>
			<g>
				<path style="fill:#ACE9F4;" d="M101.467,204.747c1.835,1.066,4.819,1.066,6.668-0.001c0.929-0.537,1.393-1.241,1.391-1.944
					l0.165,58.08c0.002,0.703-0.462,1.408-1.392,1.944c-1.848,1.067-4.833,1.067-6.668,0.001c-0.912-0.53-1.369-1.224-1.371-1.918
					l-0.165-58.08C100.098,203.523,100.555,204.217,101.467,204.747z"/>
				<path style="fill:#ACE9F4;" d="M101.489,200.884c-1.848,1.067-1.858,2.796-0.022,3.863c1.835,1.066,4.819,1.066,6.668-0.001
					c1.847-1.066,1.856-2.795,0.022-3.861C106.32,199.817,103.336,199.817,101.489,200.884z"/>
				<g>
					<path style="fill:#89DCE5;" d="M100.883,204.711c2.155,1.252,5.66,1.252,7.83-0.001c1.091-0.63,1.636-1.457,1.634-2.283
						l0.002,0.718c0.002,0.826-0.543,1.653-1.634,2.283c-2.17,1.253-5.675,1.253-7.83,0.001c-1.071-0.623-1.607-1.437-1.61-2.252
						l-0.002-0.718C99.276,203.274,99.812,204.089,100.883,204.711z"/>
					<g>
						<path style="fill:#ACE9F4;" d="M100.909,200.174c-2.171,1.253-2.182,3.283-0.026,4.536c2.155,1.252,5.66,1.252,7.83-0.001
							c2.169-1.252,2.18-3.282,0.026-4.534C106.582,198.923,103.077,198.923,100.909,200.174z"/>
						<path style="fill:#9CE9F2;" d="M104.791,204.9c1.349,0,2.609-0.298,3.547-0.839c0.799-0.461,1.258-1.054,1.259-1.627
							c0.001-0.566-0.449-1.153-1.235-1.61c-0.93-0.541-2.186-0.839-3.534-0.839c-1.349,0-2.607,0.298-3.544,0.839
							c-0.8,0.462-1.26,1.055-1.26,1.628c-0.001,0.567,0.45,1.154,1.237,1.611C102.189,204.602,103.443,204.9,104.791,204.9z"/>
					</g>
				</g>
				<path style="fill:#E54331;" d="M104.819,221.411c1.12,0,2.207-0.257,2.982-0.704c0.649-0.375,1.022-0.847,1.022-1.297
					c0.001-0.444-0.365-0.911-1.002-1.282c-0.769-0.447-1.852-0.703-2.972-0.703c-1.119,0-2.205,0.256-2.979,0.703
					c-0.65,0.375-1.023,0.848-1.024,1.297c-0.001,0.444,0.365,0.912,1.004,1.283C102.618,221.155,103.7,221.411,104.819,221.411z"/>
				<path style="fill:#E54331;" d="M101.85,220.709c0.768,0.446,1.85,0.702,2.969,0.702c1.12,0,2.207-0.257,2.982-0.704
					c0.649-0.375,1.022-0.847,1.022-1.296l0.118,41.473c0.001,0.448-0.369,0.919-1.016,1.293c-0.771,0.445-1.851,0.7-2.965,0.7
					c-1.112,0-2.188-0.254-2.951-0.698c-0.633-0.368-0.997-0.831-0.998-1.272l-0.117-41.209
					C101.009,220.055,101.341,220.413,101.85,220.709z"/>
			</g>
			<g>
				<path style="fill:#ACE9F4;" d="M87.608,212.694c1.835,1.066,4.82,1.066,6.668-0.001c0.929-0.536,1.394-1.241,1.392-1.944
					l0.165,58.08c0.002,0.703-0.462,1.408-1.391,1.944c-1.848,1.067-4.833,1.067-6.668,0.001c-0.912-0.53-1.369-1.224-1.371-1.918
					l-0.165-58.08C86.24,211.47,86.696,212.164,87.608,212.694z"/>
				<path style="fill:#ACE9F4;" d="M87.63,208.831c-1.848,1.067-1.858,2.796-0.022,3.863c1.835,1.066,4.82,1.066,6.668-0.001
					c1.847-1.066,1.856-2.795,0.022-3.861C92.462,207.764,89.477,207.764,87.63,208.831z"/>
				<g>
					<path style="fill:#89DCE5;" d="M87.025,212.658c2.155,1.252,5.66,1.252,7.83-0.001c1.091-0.63,1.636-1.457,1.634-2.283
						l0.002,0.718c0.002,0.826-0.543,1.653-1.634,2.283c-2.171,1.253-5.675,1.253-7.83,0.001c-1.071-0.623-1.608-1.437-1.61-2.252
						l-0.002-0.718C85.417,211.221,85.953,212.036,87.025,212.658z"/>
					<g>
						<path style="fill:#ACE9F4;" d="M87.05,208.122c-2.171,1.253-2.182,3.283-0.026,4.536c2.155,1.252,5.66,1.252,7.83-0.001
							c2.169-1.252,2.18-3.282,0.025-4.534C92.724,206.87,89.219,206.87,87.05,208.122z"/>
						<path style="fill:#9CE9F2;" d="M90.933,212.847c1.349,0,2.609-0.298,3.547-0.839c0.799-0.462,1.258-1.054,1.259-1.627
							c0.001-0.566-0.45-1.153-1.235-1.61c-0.931-0.541-2.186-0.839-3.535-0.839c-1.349,0-2.607,0.298-3.544,0.839
							c-0.8,0.462-1.259,1.055-1.26,1.628c-0.001,0.566,0.45,1.154,1.236,1.611C88.331,212.55,89.585,212.847,90.933,212.847z"/>
					</g>
				</g>
				<path style="fill:#E54331;" d="M90.96,229.358c1.12,0,2.207-0.257,2.982-0.704c0.649-0.375,1.022-0.847,1.022-1.297
					c0.001-0.444-0.365-0.911-1.002-1.282c-0.769-0.447-1.852-0.703-2.972-0.703c-1.119,0-2.205,0.256-2.979,0.703
					c-0.65,0.375-1.023,0.848-1.024,1.298c-0.001,0.444,0.365,0.912,1.004,1.283C88.759,229.102,89.841,229.358,90.96,229.358z"/>
				<path style="fill:#E54331;" d="M87.991,228.656c0.768,0.446,1.85,0.702,2.969,0.702c1.12,0,2.207-0.257,2.982-0.704
					c0.649-0.375,1.022-0.847,1.022-1.296l0.118,41.474c0.001,0.448-0.369,0.919-1.016,1.293c-0.771,0.445-1.851,0.7-2.965,0.7
					c-1.112,0-2.188-0.254-2.951-0.698c-0.633-0.368-0.997-0.831-0.998-1.272l-0.117-41.209
					C87.15,228.003,87.482,228.36,87.991,228.656z"/>
			</g>
			<g>
				<path style="fill:#ACE9F4;" d="M73.691,220.863c1.835,1.066,4.819,1.066,6.668-0.001c0.929-0.536,1.394-1.241,1.392-1.944
					l0.165,58.08c0.002,0.703-0.462,1.408-1.391,1.944c-1.848,1.067-4.833,1.067-6.668,0.001c-0.912-0.53-1.369-1.224-1.371-1.918
					l-0.165-58.08C72.323,219.64,72.779,220.333,73.691,220.863z"/>
				<path style="fill:#ACE9F4;" d="M73.713,217c-1.848,1.067-1.858,2.796-0.022,3.863c1.835,1.066,4.819,1.066,6.668-0.001
					c1.847-1.066,1.856-2.795,0.022-3.861C78.545,215.934,75.56,215.934,73.713,217z"/>
				<g>
					<path style="fill:#89DCE5;" d="M73.108,220.828c2.155,1.252,5.66,1.252,7.83-0.001c1.091-0.63,1.636-1.457,1.634-2.283
						l0.002,0.718c0.002,0.826-0.543,1.653-1.634,2.283c-2.171,1.253-5.675,1.253-7.83,0.001c-1.071-0.623-1.607-1.437-1.61-2.252
						l-0.002-0.718C71.5,219.391,72.036,220.205,73.108,220.828z"/>
					<g>
						<path style="fill:#ACE9F4;" d="M73.133,216.291c-2.171,1.253-2.182,3.283-0.026,4.536c2.155,1.252,5.66,1.252,7.83-0.001
							c2.169-1.252,2.18-3.282,0.026-4.534C78.807,215.039,75.302,215.039,73.133,216.291z"/>
						<path style="fill:#9CE9F2;" d="M77.016,221.016c1.349,0,2.609-0.298,3.547-0.839c0.799-0.461,1.258-1.054,1.259-1.627
							c0.001-0.566-0.449-1.153-1.235-1.61c-0.93-0.541-2.186-0.839-3.534-0.839c-1.349,0-2.607,0.298-3.544,0.839
							c-0.8,0.462-1.26,1.055-1.26,1.628c-0.001,0.566,0.45,1.154,1.237,1.611C74.414,220.719,75.668,221.016,77.016,221.016z"/>
					</g>
				</g>
				<path style="fill:#E54331;" d="M77.043,237.527c1.12,0,2.207-0.257,2.982-0.704c0.649-0.375,1.022-0.847,1.022-1.297
					c0.001-0.444-0.365-0.911-1.002-1.282c-0.769-0.447-1.852-0.703-2.972-0.703c-1.119,0-2.205,0.256-2.979,0.703
					c-0.65,0.375-1.023,0.848-1.024,1.297c-0.001,0.444,0.365,0.912,1.004,1.283C74.842,237.272,75.924,237.527,77.043,237.527z"/>
				<path style="fill:#E54331;" d="M74.074,236.825c0.768,0.446,1.85,0.702,2.969,0.702c1.12,0,2.207-0.257,2.982-0.704
					c0.649-0.375,1.022-0.847,1.022-1.296l0.118,41.474c0.001,0.448-0.369,0.919-1.016,1.293c-0.771,0.445-1.851,0.7-2.965,0.7
					c-1.112,0-2.188-0.254-2.951-0.698c-0.633-0.368-0.997-0.831-0.998-1.272l-0.117-41.209
					C73.233,236.172,73.565,236.529,74.074,236.825z"/>
			</g>
			<g>
				<path style="fill:#ACE9F4;" d="M59.977,228.424c1.835,1.066,4.82,1.066,6.668-0.001c0.929-0.536,1.393-1.241,1.392-1.944
					l0.165,58.08c0.002,0.703-0.462,1.408-1.391,1.944c-1.848,1.067-4.833,1.067-6.668,0.001c-0.912-0.53-1.369-1.224-1.371-1.918
					l-0.165-58.08C58.608,227.2,59.065,227.894,59.977,228.424z"/>
				<path style="fill:#ACE9F4;" d="M59.999,224.561c-1.848,1.067-1.858,2.796-0.022,3.863c1.835,1.066,4.82,1.066,6.668-0.001
					c1.847-1.066,1.856-2.795,0.022-3.861C64.83,223.495,61.845,223.495,59.999,224.561z"/>
				<g>
					<path style="fill:#89DCE5;" d="M59.393,228.388c2.154,1.252,5.659,1.252,7.83-0.001c1.091-0.63,1.636-1.457,1.634-2.283
						l0.002,0.718c0.002,0.826-0.543,1.653-1.634,2.283c-2.171,1.253-5.675,1.253-7.83,0.001c-1.071-0.622-1.608-1.437-1.61-2.252
						l-0.002-0.718C57.785,226.951,58.322,227.766,59.393,228.388z"/>
					<g>
						<path style="fill:#ACE9F4;" d="M59.418,223.852c-2.17,1.253-2.182,3.283-0.025,4.536c2.154,1.252,5.659,1.252,7.83-0.001
							c2.169-1.252,2.18-3.282,0.025-4.534C65.092,222.6,61.587,222.6,59.418,223.852z"/>
						<path style="fill:#9CE9F2;" d="M63.301,228.577c1.349,0,2.609-0.298,3.547-0.839c0.799-0.461,1.258-1.054,1.259-1.627
							c0.001-0.566-0.45-1.153-1.235-1.61c-0.93-0.541-2.186-0.839-3.534-0.839c-1.349,0-2.607,0.298-3.544,0.839
							c-0.8,0.462-1.259,1.055-1.26,1.628c-0.001,0.566,0.45,1.154,1.237,1.611C60.699,228.28,61.953,228.577,63.301,228.577z"/>
					</g>
				</g>
				<path style="fill:#E54331;" d="M63.328,245.088c1.12,0,2.207-0.257,2.982-0.704c0.649-0.375,1.022-0.847,1.022-1.297
					c0.001-0.444-0.365-0.911-1.002-1.282c-0.769-0.447-1.852-0.703-2.972-0.703c-1.119,0-2.205,0.256-2.979,0.703
					c-0.65,0.375-1.023,0.848-1.024,1.297c0,0.444,0.365,0.912,1.004,1.283C61.127,244.832,62.209,245.088,63.328,245.088z"/>
				<path style="fill:#E54331;" d="M60.36,244.386c0.768,0.446,1.85,0.702,2.969,0.702c1.12,0,2.207-0.257,2.982-0.704
					c0.649-0.375,1.022-0.847,1.022-1.296l0.118,41.474c0.001,0.448-0.369,0.919-1.016,1.293c-0.771,0.445-1.851,0.7-2.965,0.7
					c-1.112,0-2.188-0.254-2.951-0.698c-0.633-0.368-0.996-0.831-0.998-1.272l-0.117-41.209
					C59.519,243.733,59.85,244.09,60.36,244.386z"/>
			</g>
			<polygon style="fill:#CECECE;" points="126.775,229.422 126.775,256.116 66.926,290.7 66.926,263.975 			"/>
			<polygon style="fill:#DBDBDB;" points="41.278,249.167 66.926,263.975 66.926,290.7 41.278,275.878 			"/>
			<path style="fill:#E5E5E5;" d="M58.299,253.813c0.077,0.05,0.157,0.099,0.24,0.147c2.575,1.497,6.763,1.497,9.357-0.001
				c0.115-0.066,0.223-0.135,0.327-0.205L71,255l0.995-3.653l-2.88-4.106l2.724-1.655c0.171,0.129,0.357,0.254,0.561,0.372
				c2.575,1.497,6.764,1.496,9.357-0.001c0.433-0.25,0.792-0.526,1.081-0.819c0.694,0.15,1.188,0.235,1.188,0.235l1.389-3.263
				l-2.516-3.244l2.508-1.524c0.244,0.217,0.529,0.422,0.856,0.612c2.575,1.497,6.763,1.497,9.355,0
				c1.994-1.151,2.461-2.85,1.402-4.255l3.003-1.883l-1.75-2.292l0.73-0.444c0.294,0.312,0.666,0.606,1.121,0.871
				c2.575,1.497,6.764,1.496,9.357-0.001c2.096-1.21,2.506-3.029,1.225-4.471l4.269-2.915l11.8,6.857l-59.848,34.553l-12.958-7.53
				L58.299,253.813z"/>
		</g>
		<g>
			<path style="fill:#9BA3A5;" d="M298.877,224.533c-1.181-0.682-2.252-0.745-3.025-0.296l-0.581,0.338
				c0.773-0.449,1.843-0.386,3.025,0.296c2.348,1.356,4.245,4.642,4.237,7.34c-0.004,1.34-0.477,2.283-1.24,2.727l0.581-0.338
				c0.763-0.443,1.236-1.386,1.24-2.727C303.122,229.175,301.225,225.889,298.877,224.533z"/>
			<path style="fill:#A6AFB2;" d="M298.296,224.871c2.348,1.356,4.245,4.642,4.237,7.34c-0.008,2.697-1.917,3.786-4.265,2.43
				c-2.348-1.355-4.245-4.642-4.237-7.339C294.039,224.604,295.949,223.516,298.296,224.871z"/>
		</g>
		<path style="fill:#313747;" d="M299.876,232.879l-3.766-6.196l-11.704,6.757c-13.066,7.543-23.659,25.893-23.616,41.04
			c0.045,15.705-11.039,34.902-24.707,42.793c-5.952,3.436-11.427,4.169-15.716,2.605c-3.432-2.909-5.499-7.925-5.518-14.665
			l-0.055-19.239c-0.03-10.701-3.685-18.667-10.291-22.432l-3.634-2.112c-6.606-3.764-15.373-2.877-24.685,2.499l-5.977,3.451
			c-1.009,0.583-1.826,1.998-1.823,3.158c0.002,0.577,0.205,0.982,0.533,1.173l3.634,2.112c-0.021-0.012-0.039-0.027-0.059-0.041
			c0.336,0.234,0.821,0.225,1.36-0.086l5.978-3.451c7.521-4.342,14.645-5.412,20.309-3.104c4.743,3.72,7.341,10.306,7.365,18.834
			l0.055,19.239c0.025,8.731,3.007,15.23,8.397,18.302l3.633,2.112c5.39,3.071,12.543,2.347,20.141-2.04
			c7.597-4.386,14.73-11.91,20.085-21.185c5.355-9.276,8.29-19.191,8.265-28.056c-0.036-12.696,8.923-28.213,19.972-34.592
			l11.704-6.757c0.058-0.033,0.115-0.07,0.171-0.109L299.876,232.879z"/>
		<path style="fill:#313747;" d="M298.02,226.823c1.428,0.825,2.583,2.824,2.578,4.466c-0.005,1.641-1.166,2.303-2.595,1.479
			c-1.428-0.825-2.583-2.824-2.578-4.465C295.43,226.66,296.591,225.998,298.02,226.823z"/>
		<g>
			<path style="fill:#354658;" d="M175.652,254.853c-2.889-1.668-5.506-1.822-7.396-0.724l-1.421,0.826
				c0.006-0.003,0.012-0.007,0.018-0.01c-1.877,1.08-3.041,3.39-3.051,6.678c-0.019,6.596,4.621,14.632,10.361,17.947
				c2.899,1.674,5.525,1.823,7.417,0.712c-0.007,0.004-0.013,0.009-0.02,0.013l1.421-0.826c1.866-1.084,3.023-3.39,3.032-6.667
				C186.032,266.204,181.393,258.168,175.652,254.853z"/>
			<path style="fill:#9BA3A5;" d="M170.436,252.086c-4.458-2.574-8.498-2.813-11.416-1.117l-2.194,1.275
				c2.917-1.695,6.957-1.457,11.416,1.117c8.861,5.116,16.021,17.519,15.992,27.701c-0.014,5.058-1.8,8.617-4.68,10.291l2.194-1.275
				c2.88-1.674,4.666-5.233,4.681-10.291C186.457,269.605,179.297,257.203,170.436,252.086z"/>
			<path style="fill:#A6AFB2;" d="M168.242,253.361c8.861,5.116,16.021,17.519,15.992,27.701
				c-0.029,10.181-7.235,14.289-16.097,9.173c-8.86-5.115-16.021-17.518-15.992-27.699
				C152.174,252.353,159.382,248.246,168.242,253.361z"/>
			<path style="fill:#E9E9E9;" d="M175.337,290.361c-1.852,0-3.983-0.665-6.161-1.923c-3.975-2.295-7.729-6.269-10.57-11.191
				c-2.84-4.92-4.398-10.143-4.385-14.706c0.017-5.827,2.567-9.306,6.824-9.306c1.852,0,3.982,0.665,6.161,1.922
				c3.975,2.295,7.729,6.27,10.571,11.191c2.84,4.92,4.397,10.143,4.384,14.707C182.143,286.883,179.592,290.361,175.337,290.361z"
				/>
			<path style="fill:#8A9193;" d="M159.84,279.049c-2.931-5.076-4.538-10.465-4.524-15.174c0.017-6.012,2.649-9.602,7.041-9.602
				c1.911,0,4.109,0.686,6.357,1.984c0.397,0.229,0.79,0.479,1.182,0.739c-0.88-0.694-1.778-1.312-2.69-1.838
				c-2.178-1.258-4.309-1.922-6.161-1.922c-4.256,0-6.807,3.479-6.824,9.306c-0.013,4.564,1.544,9.786,4.385,14.706
				c0.674,1.168,1.402,2.281,2.17,3.333C160.455,280.08,160.141,279.571,159.84,279.049z"/>
		</g>
		<g>
			<g>
				<polygon style="fill:#C0EEFF;" points="80.344,267.229 146.182,305.24 146.044,353.854 80.207,315.843 				"/>
				<g>
					<polygon style="fill:#C1E1E2;" points="139.357,336.15 139.336,343.268 86.952,313.024 86.972,305.906 					"/>
				</g>
				<g>
					<path style="fill:#F4F4F4;" d="M96.835,283.313c0.127,0.073,0.255,0.154,0.384,0.241c2.537,1.627,4.067,5.043,4.194,7.885
						c0.059,1.342-0.311,2.429-1.135,2.875c-0.141,1.047-0.539,1.891-1.448,1.948c-0.006,0.326-0.007,0.65-0.008,0.977
						c0.265,0.302,0.786,0.895,1.463,1.664c0.496,0.565,1.076,1.224,1.696,1.931c0.311,0.352,0.631,0.717,0.956,1.089
						c0.081,0.091,0.162,0.184,0.245,0.278c0.083,0.096,0.172,0.2,0.253,0.308c0.166,0.215,0.317,0.448,0.451,0.688
						c0.134,0.242,0.25,0.491,0.342,0.741c0.048,0.125,0.087,0.251,0.124,0.374c0.033,0.117,0.068,0.234,0.1,0.352
						c0.128,0.467,0.245,0.924,0.35,1.365c0.208,0.883,0.365,1.697,0.478,2.387c0.113,0.69,0.185,1.259,0.227,1.652
						c0.023,0.197,0.037,0.35,0.047,0.455c0.009,0.105,0.014,0.158,0.014,0.16c0.008,0.069-0.019,0.11-0.059,0.092
						c-0.041-0.023-0.075-0.086-0.084-0.15c-0.016-0.141-0.048-0.41-0.099-0.772c0.033,0.287,0.064,0.579,0.089,0.872l-0.702-0.405
						c0.059,0.036,0.108,0.066,0.15,0.09c0.075,0.045,0.134,0.107,0.134,0.142c0,0.033-0.064,0.026-0.142-0.02l-16.278-9.405
						c-0.158-0.091-0.287-0.223-0.287-0.292c0.003-0.053-0.001-0.082,0-0.108c0.027-0.363,0.123-1.639,0.479-3.041
						c0.087-0.352,0.191-0.711,0.308-1.068c0.06-0.177,0.123-0.354,0.189-0.531c0.035-0.086,0.069-0.173,0.103-0.26l0.055-0.128
						c0.018-0.043,0.039-0.088,0.061-0.13c0.175-0.338,0.46-0.555,0.806-0.62c0.086-0.014,0.176-0.023,0.267-0.022
						c0.086,0,0.173,0.002,0.257,0.005c0.171,0.005,0.339,0.01,0.504,0.015c1.968,0.071,3.135,0.087,3.675,0.086
						c0.001-0.349,0.002-0.697,0.003-1.045c-0.895-1.12-1.314-2.368-1.461-3.551c-0.279-0.464-0.517-0.975-0.691-1.454
						c-0.757-2.076-0.53-4.14,0.247-5.288C93.852,282.569,95.283,282.417,96.835,283.313z"/>
				</g>
				<path style="fill:#313747;" d="M105.551,310.521c-0.009-0.105-0.023-0.258-0.047-0.455c-0.042-0.393-0.114-0.962-0.227-1.652
					c-0.113-0.69-0.269-1.504-0.478-2.387c-0.104-0.441-0.221-0.897-0.35-1.365c-0.032-0.117-0.066-0.235-0.1-0.352
					c-0.036-0.124-0.076-0.25-0.123-0.374c-0.092-0.25-0.208-0.499-0.342-0.741c-0.134-0.241-0.285-0.473-0.451-0.688
					c-0.081-0.108-0.17-0.212-0.253-0.308c-0.083-0.094-0.164-0.187-0.245-0.278c-0.325-0.371-0.646-0.736-0.956-1.089
					c-0.62-0.707-1.2-1.365-1.696-1.931c-0.677-0.77-1.198-1.362-1.463-1.664c0.001-0.326,0.002-0.651,0.003-0.978
					c0.913-0.055,1.312-0.9,1.452-1.947c0.825-0.446,1.194-1.534,1.135-2.875c-0.126-2.841-1.656-6.258-4.194-7.885
					c-0.128-0.087-0.257-0.168-0.383-0.241c-1.552-0.896-2.982-0.743-3.747,0.381c-0.777,1.148-1.004,3.212-0.247,5.288
					c0.175,0.479,0.413,0.99,0.691,1.454c0.147,1.184,0.565,2.432,1.461,3.551c-0.001,0.349-0.002,0.697-0.003,1.046
					c-0.54,0-1.707-0.016-3.675-0.086c-0.165-0.005-0.332-0.01-0.504-0.015c-0.085-0.003-0.171-0.005-0.257-0.005
					c-0.091-0.001-0.181,0.008-0.267,0.022c-0.346,0.065-0.631,0.283-0.806,0.62c-0.022,0.042-0.043,0.087-0.061,0.13l-0.055,0.128
					c-0.034,0.087-0.068,0.174-0.103,0.26c-0.066,0.177-0.129,0.354-0.189,0.53c-0.118,0.356-0.221,0.716-0.309,1.068
					c-0.356,1.402-0.452,2.678-0.479,3.042c-0.002,0.027,0.003,0.055,0.013,0.081c-0.013,0.097,0.116,0.229,0.274,0.32l16.278,9.405
					c0.078,0.045,0.142,0.053,0.142,0.02c0-0.035-0.059-0.096-0.134-0.142c-0.042-0.024-0.091-0.054-0.15-0.09l0.702,0.405
					c-0.025-0.294-0.056-0.585-0.089-0.872c0.05,0.362,0.083,0.63,0.098,0.772c0.009,0.063,0.043,0.126,0.08,0.147
					c0.044,0.02,0.072-0.021,0.064-0.09C105.565,310.678,105.561,310.625,105.551,310.521z"/>
				<g>
					<polygon style="fill:#A2E3F4;" points="86.952,313.024 139.336,343.268 139.356,336.15 86.972,305.906 					"/>
				</g>
			</g>
			<g>
				<path style="fill:#313747;" d="M114.248,301.348c0.176-0.508,0.366-1.139,0.508-1.722l0.021,0.012
					c-0.002,0.756,0.015,1.522,0.034,2.158l0.061,2.029l0.999,0.577l-0.233-5.339l-1.336-0.771l-0.487,1.448
					c-0.15,0.494-0.307,1.09-0.435,1.617l-0.021-0.012c-0.099-0.667-0.238-1.394-0.378-2.077l-0.437-1.99l-1.362-0.786l-0.304,5.029
					l0.947,0.546l0.085-1.927c0.035-0.628,0.059-1.418,0.1-2.097c0.105,0.74,0.258,1.571,0.403,2.264l0.478,2.291l0.798,0.461
					L114.248,301.348z"/>
				<polygon style="fill:#313747;" points="119.71,305.652 117.852,304.579 117.856,303.347 119.521,304.308 119.523,303.352 
					117.858,302.391 117.861,301.311 119.627,302.33 119.63,301.367 116.838,299.755 116.823,304.951 119.707,306.617 				"/>
				<path style="fill:#313747;" d="M123.821,308.372c0.439-0.171,0.755-0.676,0.758-1.67c0.003-0.917-0.291-1.728-0.759-2.398
					c-0.435-0.629-0.991-1.129-1.85-1.625c-0.517-0.299-1.006-0.542-1.383-0.69l-0.014,5.102c0.255,0.186,0.63,0.441,1.16,0.747
					C122.619,308.351,123.344,308.553,123.821,308.372z M121.611,303.422c0.088,0.027,0.235,0.09,0.463,0.221
					c0.88,0.508,1.429,1.396,1.417,2.47c-0.003,1.234-0.601,1.475-1.517,0.947c-0.006-0.003-0.011-0.007-0.017-0.01
					c-0.128-0.074-0.268-0.155-0.356-0.229L121.611,303.422z"/>
				<polygon style="fill:#313747;" points="126.45,305.305 125.424,304.712 125.409,309.908 126.435,310.501 				"/>
				<path style="fill:#313747;" d="M130.658,311.874c-0.203-0.025-0.545-0.145-0.853-0.323c-0.913-0.527-1.447-1.492-1.445-2.533
					c0.003-1.155,0.635-1.355,1.448-0.885c0.362,0.209,0.649,0.469,0.858,0.688l0.21-0.812c-0.182-0.213-0.584-0.568-1.113-0.874
					c-1.368-0.79-2.472-0.439-2.477,1.333c-0.004,1.48,0.799,3.064,2.361,3.966c0.551,0.318,0.972,0.446,1.161,0.446
					L130.658,311.874z"/>
				<path style="fill:#313747;" d="M134.411,315.106l1.1,0.635l-1.387-6.005l-1.342-0.775l-1.397,4.398l1.06,0.612l0.326-1.147
					l1.295,0.747L134.411,315.106z M132.92,312.028l0.271-0.948c0.076-0.256,0.144-0.611,0.212-0.881l0.013,0.007
					c0.066,0.347,0.146,0.779,0.226,1.133l0.279,1.265L132.92,312.028z"/>
				<polygon style="fill:#313747;" points="137.311,315.792 137.323,311.582 136.297,310.99 136.282,316.186 139.106,317.816 
					139.108,316.829 				"/>
				<path style="fill:#313747;" d="M115.502,309.136c0.362,0.209,0.651,0.468,0.858,0.688l0.21-0.814
					c-0.18-0.21-0.582-0.567-1.112-0.873c-1.369-0.791-2.472-0.439-2.477,1.335c-0.004,1.48,0.797,3.061,2.361,3.965
					c0.549,0.317,0.972,0.446,1.161,0.448l-0.152-1.008c-0.201-0.023-0.543-0.143-0.853-0.322c-0.911-0.526-1.448-1.492-1.444-2.533
					C114.057,308.866,114.689,308.667,115.502,309.136z"/>
				<polygon style="fill:#313747;" points="118.374,312.91 120.037,313.871 120.04,312.915 118.376,311.955 118.38,310.875 
					120.143,311.893 120.146,310.93 117.356,309.319 117.341,314.515 120.225,316.18 120.228,315.216 118.37,314.143 				"/>
				<path style="fill:#313747;" d="M123.904,314.621c-0.002,0.778,0.017,1.492,0.082,2.217l-0.019-0.011
					c-0.201-0.704-0.467-1.506-0.734-2.208l-0.933-2.446l-1.194-0.689l-0.015,5.196l0.939,0.542l0.004-1.566
					c0.002-0.847-0.008-1.587-0.034-2.288l0.019,0.002c0.22,0.737,0.514,1.579,0.78,2.289l0.96,2.562l1.074,0.62l0.015-5.196
					l-0.94-0.543L123.904,314.621z"/>
				<polygon style="fill:#313747;" points="125.556,315.042 126.771,315.743 126.759,319.952 127.785,320.545 127.797,316.336 
					129.031,317.048 129.033,316.061 125.559,314.055 				"/>
				<polygon style="fill:#313747;" points="130.762,320.063 132.425,321.023 132.428,320.067 130.764,319.107 130.767,318.027 
					132.533,319.046 132.535,318.083 129.744,316.471 129.729,321.667 132.613,323.332 132.616,322.368 130.758,321.295 				"/>
				<path style="fill:#313747;" d="M135.927,322.804l0-0.022c0.39,0.062,0.8-0.157,0.802-0.819c0.001-0.479-0.145-0.925-0.412-1.327
					c-0.322-0.478-0.79-0.864-1.462-1.252c-0.543-0.313-1.033-0.55-1.362-0.678l-0.014,5.126l1.014,0.585l0.006-2.043l0.308,0.178
					c0.417,0.248,0.611,0.536,0.729,1.255c0.132,0.717,0.24,1.204,0.313,1.393l1.046,0.604c-0.086-0.251-0.224-1.011-0.365-1.678
					C136.416,323.581,136.243,323.134,135.927,322.804z M134.902,321.757l-0.402-0.232l0.004-1.432
					c0.073,0.026,0.214,0.085,0.463,0.229c0.469,0.278,0.749,0.679,0.748,1.158C135.714,321.933,135.412,322.051,134.902,321.757z"
					/>
			</g>
		</g>
		<g>
			<path style="fill:#E53028;" d="M190.308,341.439c-5.448-3.145-10.384-3.438-13.949-1.366l-4.246,2.467
				c3.564-2.071,8.5-1.779,13.948,1.366c10.826,6.25,19.574,21.402,19.539,33.842c-0.018,6.18-2.199,10.528-5.718,12.573
				l4.246-2.467c3.519-2.045,5.701-6.393,5.718-12.573C209.882,362.841,201.134,347.69,190.308,341.439z"/>
			<g>
				
					<ellipse transform="matrix(0.8646 -0.5025 0.5025 0.8646 -158.9313 143.0683)" style="fill:#F94632;" cx="185.998" cy="366.432" rx="16.005" ry="27.632"/>
			</g>
			<g>
				<g>
					<path style="fill:#E9E9E9;" d="M195.185,371.064c-0.002,0.762-0.104,1.44-0.292,2.026c0.001,0-0.023,0.086-0.085,0.241
						c-0.157,0.415-0.358,0.779-0.601,1.087c-1.121,1.633-3.957,4.387-10.828,5.989c-6.839-9.518-9.651-15.532-10.759-18.453
						c-0.24-0.586-0.439-1.181-0.592-1.775c-0.062-0.226-0.083-0.332-0.084-0.338c-0.183-0.8-0.281-1.593-0.279-2.355
						c0.012-4.112,2.922-5.772,6.501-3.705c2.179,1.258,4.102,3.608,5.271,6.181c1.18-1.217,3.11-1.342,5.288-0.085
						C192.306,361.943,195.197,366.952,195.185,371.064z"/>
				</g>
				<path style="fill:#D8D8D8;" d="M192.124,357.902c-1.8-1.039-3.43-1.134-4.607-0.45l-0.733,0.426
					c-1.174-2.531-3.071-4.832-5.22-6.073c-1.801-1.04-3.432-1.136-4.61-0.451l-3.397,1.974c1.178-0.685,2.81-0.588,4.61,0.451
					c2.179,1.258,4.102,3.608,5.271,6.181l1.475-0.857c1.072-0.279,2.389-0.05,3.814,0.772c3.579,2.066,6.47,7.075,6.458,11.187
					c-0.002,0.762-0.104,1.44-0.292,2.026c0.001,0-0.023,0.086-0.085,0.241c-0.157,0.415-0.358,0.779-0.601,1.087
					c-0.623,0.908-1.777,2.163-3.86,3.374l3.397-1.974c2.083-1.21,3.237-2.465,3.86-3.374c0.243-0.309,0.444-0.672,0.601-1.087
					c0.062-0.155,0.085-0.24,0.085-0.241c0.187-0.586,0.29-1.264,0.292-2.026C198.594,364.978,195.702,359.969,192.124,357.902z"/>
			</g>
		</g>
		<g>
			<path style="fill:#C0EEFF;" d="M370.502,374.731l-19.894-11.486c-1.249-0.721-3.266-0.721-4.506,0l-47.023,27.327
				c-1.24,0.721-1.234,1.889,0.015,2.61l19.894,11.486c1.249,0.721,3.267,0.722,4.507,0.001l47.023-27.327
				C371.758,376.621,371.75,375.452,370.502,374.731z"/>
			<g>
				<g style="enable-background:new    ;">
					<g>
						<path style="fill:#F94632;" d="M349.364,368.695l-0.005,1.599c-0.001,0.398-0.263,0.795-0.785,1.099
							c-1.052,0.611-2.762,0.611-3.821,0c-0.533-0.307-0.799-0.711-0.798-1.114l0.005-1.599c-0.001,0.403,0.265,0.807,0.798,1.114
							c1.058,0.611,2.769,0.611,3.821,0C349.102,369.491,349.363,369.093,349.364,368.695z"/>
					</g>
					<g>
						<path style="fill:#F94632;" d="M348.567,367.581c1.059,0.611,1.064,1.602,0.012,2.213c-1.052,0.611-2.762,0.611-3.821,0
							c-1.059-0.611-1.064-1.602-0.013-2.213C345.798,366.97,347.508,366.97,348.567,367.581z"/>
					</g>
				</g>
				<g style="enable-background:new    ;">
					<g>
						<path style="fill:#F94632;" d="M361.85,375.904l-0.005,1.599c-0.001,0.398-0.263,0.795-0.785,1.099
							c-1.052,0.611-2.762,0.611-3.821,0c-0.533-0.308-0.8-0.712-0.799-1.115l0.005-1.599c-0.001,0.403,0.265,0.807,0.799,1.115
							c1.059,0.611,2.769,0.611,3.821,0C361.587,376.699,361.849,376.302,361.85,375.904z"/>
					</g>
					<g>
						<path style="fill:#F94632;" d="M361.052,374.789c1.059,0.611,1.064,1.602,0.012,2.213c-1.052,0.611-2.762,0.611-3.821,0
							c-1.06-0.612-1.065-1.603-0.014-2.214C358.282,374.178,359.992,374.178,361.052,374.789z"/>
					</g>
				</g>
				<g style="enable-background:new    ;">
					<g>
						<path style="fill:#F94632;" d="M340.507,373.843l-0.005,1.599c-0.001,0.398-0.263,0.795-0.785,1.099
							c-1.052,0.611-2.762,0.611-3.821,0c-0.533-0.307-0.799-0.711-0.798-1.114l0.005-1.599c-0.001,0.403,0.265,0.807,0.798,1.114
							c1.058,0.611,2.769,0.611,3.821,0C340.244,374.638,340.506,374.241,340.507,373.843z"/>
					</g>
					<g>
						<path style="fill:#F94632;" d="M339.71,372.728c1.059,0.611,1.064,1.602,0.012,2.213c-1.052,0.611-2.762,0.611-3.821,0
							c-1.059-0.611-1.064-1.602-0.013-2.213C336.94,372.117,338.651,372.117,339.71,372.728z"/>
					</g>
				</g>
				<g style="enable-background:new    ;">
					<g>
						<path style="fill:#F94632;" d="M352.992,381.051l-0.005,1.599c-0.001,0.398-0.263,0.795-0.785,1.099
							c-1.052,0.611-2.762,0.611-3.821,0c-0.533-0.308-0.8-0.712-0.799-1.115l0.005-1.599c-0.001,0.403,0.265,0.807,0.799,1.115
							c1.059,0.611,2.769,0.611,3.821,0C352.73,381.846,352.991,381.449,352.992,381.051z"/>
					</g>
					<g>
						<path style="fill:#F94632;" d="M352.195,379.937c1.059,0.611,1.064,1.602,0.012,2.213c-1.052,0.611-2.762,0.611-3.821,0
							c-1.06-0.612-1.065-1.603-0.014-2.214C349.424,379.325,351.135,379.325,352.195,379.937z"/>
					</g>
				</g>
				<g style="enable-background:new    ;">
					<g>
						<path style="fill:#F94632;" d="M331.65,378.99l-0.005,1.599c-0.001,0.398-0.263,0.795-0.785,1.099
							c-1.053,0.612-2.764,0.612-3.822,0.001c-0.532-0.307-0.798-0.711-0.797-1.114l0.005-1.599
							c-0.001,0.403,0.265,0.807,0.797,1.114c1.059,0.611,2.769,0.611,3.822-0.001C331.387,379.785,331.649,379.388,331.65,378.99z"
							/>
					</g>
					<g>
						<path style="fill:#F94632;" d="M330.852,377.876c1.059,0.611,1.064,1.602,0.012,2.213c-1.053,0.612-2.763,0.612-3.822,0.001
							c-1.059-0.611-1.064-1.602-0.011-2.214C328.083,377.264,329.794,377.264,330.852,377.876z"/>
					</g>
				</g>
				<g style="enable-background:new    ;">
					<g>
						<path style="fill:#F94632;" d="M344.135,386.198l-0.005,1.599c-0.001,0.398-0.263,0.795-0.785,1.099
							c-1.053,0.612-2.763,0.612-3.822,0.001c-0.533-0.308-0.8-0.712-0.798-1.115l0.004-1.599c-0.001,0.403,0.265,0.807,0.798,1.115
							c1.059,0.611,2.769,0.611,3.822-0.001C343.872,386.993,344.134,386.596,344.135,386.198z"/>
					</g>
					<g>
						<path style="fill:#F94632;" d="M343.338,385.084c1.059,0.611,1.064,1.602,0.012,2.213c-1.053,0.612-2.763,0.612-3.822,0.001
							c-1.06-0.612-1.065-1.603-0.012-2.215C340.567,384.472,342.278,384.472,343.338,385.084z"/>
					</g>
				</g>
				<g style="enable-background:new    ;">
					<g>
						<path style="fill:#F94632;" d="M322.791,384.138l-0.005,1.599c-0.001,0.398-0.263,0.795-0.785,1.099
							c-1.052,0.611-2.762,0.611-3.821,0c-0.533-0.307-0.799-0.711-0.797-1.114l0.004-1.599c-0.001,0.403,0.265,0.807,0.798,1.114
							c1.059,0.611,2.769,0.611,3.821,0C322.529,384.933,322.79,384.536,322.791,384.138z"/>
					</g>
					<g>
						<path style="fill:#F94632;" d="M321.994,383.024c1.059,0.611,1.064,1.602,0.013,2.213c-1.052,0.611-2.762,0.611-3.821,0
							c-1.058-0.611-1.064-1.602-0.012-2.213C319.225,382.413,320.935,382.413,321.994,383.024z"/>
					</g>
				</g>
				<g style="enable-background:new    ;">
					<g>
						<path style="fill:#F94632;" d="M335.277,391.346l-0.005,1.599c-0.001,0.398-0.263,0.795-0.785,1.099
							c-1.052,0.611-2.762,0.611-3.821,0c-0.534-0.308-0.8-0.712-0.799-1.115l0.005-1.599c-0.001,0.403,0.265,0.807,0.799,1.115
							c1.058,0.611,2.769,0.611,3.821,0C335.014,392.142,335.275,391.744,335.277,391.346z"/>
					</g>
					<g>
						<path style="fill:#F94632;" d="M334.479,390.232c1.059,0.611,1.064,1.602,0.012,2.213c-1.052,0.611-2.762,0.611-3.821,0
							c-1.06-0.612-1.065-1.603-0.014-2.214C331.709,389.62,333.419,389.62,334.479,390.232z"/>
					</g>
				</g>
				<g style="enable-background:new    ;">
					<g>
						<path style="fill:#F94632;" d="M313.934,389.285l-0.005,1.599c-0.001,0.398-0.263,0.795-0.785,1.099
							c-1.052,0.611-2.762,0.611-3.821,0c-0.533-0.307-0.799-0.711-0.797-1.114l0.004-1.599c-0.001,0.403,0.265,0.807,0.798,1.114
							c1.059,0.611,2.769,0.611,3.821,0C313.671,390.08,313.933,389.683,313.934,389.285z"/>
					</g>
					<g>
						<path style="fill:#F94632;" d="M313.136,388.171c1.059,0.611,1.064,1.602,0.013,2.213c-1.052,0.611-2.762,0.611-3.821,0
							c-1.059-0.611-1.064-1.602-0.012-2.213C310.367,387.56,312.078,387.56,313.136,388.171z"/>
					</g>
				</g>
				<g style="enable-background:new    ;">
					<g>
						<path style="fill:#F94632;" d="M326.419,396.494l-0.004,1.599c-0.001,0.398-0.263,0.795-0.785,1.099
							c-1.052,0.611-2.762,0.611-3.821,0c-0.534-0.308-0.8-0.712-0.799-1.115l0.005-1.599c-0.001,0.403,0.265,0.807,0.799,1.115
							c1.059,0.611,2.769,0.611,3.821,0C326.157,397.289,326.418,396.892,326.419,396.494z"/>
					</g>
					<g>
						<path style="fill:#F94632;" d="M325.622,395.379c1.059,0.611,1.064,1.602,0.012,2.213c-1.052,0.611-2.762,0.611-3.821,0
							c-1.06-0.612-1.065-1.603-0.014-2.214C322.851,394.767,324.562,394.767,325.622,395.379z"/>
					</g>
				</g>
			</g>
		</g>
	</g>
</g>
<g id="DESIGNED_BY_FREEPIK">
	<g>
		<g>
			<g>
				<path style="fill:#FFFFFF;" d="M179.531,474.773c-0.246,0-0.435,0.085-0.567,0.255c-0.133,0.17-0.199,0.421-0.199,0.754v2.392
					c-0.305-0.331-0.617-0.579-0.938-0.739c-0.32-0.159-0.714-0.24-1.181-0.24c-0.807,0-1.458,0.283-1.953,0.848
					c-0.495,0.566-0.742,1.356-0.742,2.369c0,0.479,0.063,0.923,0.187,1.335c0.125,0.412,0.307,0.77,0.549,1.074
					c0.241,0.305,0.527,0.54,0.857,0.704c0.331,0.164,0.69,0.246,1.078,0.246c0.293,0,0.563-0.04,0.81-0.122
					c0.247-0.081,0.477-0.2,0.689-0.357c0.212-0.156,0.426-0.359,0.644-0.608v0.161c0,0.297,0.072,0.525,0.216,0.686
					c0.145,0.16,0.328,0.24,0.549,0.24c0.226,0,0.41-0.078,0.552-0.231c0.143-0.155,0.214-0.386,0.214-0.695v-7.147
					c0-0.305-0.066-0.535-0.199-0.691C179.965,474.851,179.776,474.773,179.531,474.773z M178.465,481.615
					c-0.14,0.306-0.328,0.534-0.564,0.682c-0.236,0.149-0.496,0.223-0.781,0.223c-0.281,0-0.54-0.079-0.777-0.236
					c-0.238-0.155-0.424-0.388-0.561-0.697c-0.136-0.309-0.205-0.682-0.205-1.122c0-0.416,0.064-0.781,0.193-1.096
					c0.128-0.315,0.309-0.556,0.543-0.724c0.234-0.168,0.499-0.252,0.796-0.252c0.285,0,0.547,0.082,0.786,0.245
					c0.24,0.165,0.429,0.402,0.57,0.712c0.141,0.311,0.211,0.682,0.211,1.114C178.676,480.924,178.606,481.308,178.465,481.615z"/>
				<path style="fill:#FFFFFF;" d="M186.897,480.694c0.233-0.121,0.35-0.385,0.35-0.794c0-0.438-0.114-0.87-0.339-1.294
					c-0.225-0.423-0.565-0.768-1.019-1.035c-0.453-0.268-0.996-0.4-1.629-0.4c-0.487,0-0.93,0.078-1.33,0.234
					c-0.4,0.157-0.736,0.381-1.01,0.674c-0.272,0.293-0.48,0.644-0.623,1.054c-0.142,0.409-0.213,0.853-0.213,1.332
					c0,1.017,0.289,1.823,0.866,2.416s1.387,0.891,2.428,0.891c0.455,0,0.858-0.059,1.208-0.178
					c0.351-0.119,0.641-0.268,0.873-0.448c0.231-0.18,0.404-0.368,0.52-0.564c0.114-0.197,0.172-0.367,0.172-0.513
					c0-0.167-0.052-0.294-0.155-0.386c-0.102-0.091-0.237-0.137-0.403-0.137c-0.155,0-0.274,0.036-0.357,0.107
					c-0.202,0.19-0.366,0.341-0.493,0.452c-0.127,0.111-0.265,0.216-0.415,0.312c-0.151,0.098-0.306,0.168-0.466,0.214
					c-0.161,0.045-0.338,0.067-0.531,0.067c-0.289,0-0.553-0.07-0.793-0.213c-0.239-0.142-0.432-0.354-0.576-0.635
					c-0.145-0.281-0.219-0.605-0.223-0.973h3.169C186.335,480.875,186.664,480.815,186.897,480.694z M182.742,479.955
					c0.056-0.546,0.213-0.96,0.472-1.238c0.259-0.279,0.59-0.418,0.994-0.418c0.424,0,0.764,0.137,1.024,0.412
					c0.259,0.275,0.409,0.69,0.448,1.244H182.742z"/>
				<path style="fill:#FFFFFF;" d="M192.325,480.257c-0.319-0.17-0.729-0.316-1.231-0.439c-0.424-0.103-0.756-0.19-0.997-0.261
					c-0.242-0.071-0.434-0.161-0.576-0.27c-0.142-0.109-0.213-0.248-0.213-0.419c0-0.186,0.097-0.341,0.291-0.465
					c0.194-0.126,0.437-0.187,0.73-0.187c0.285,0,0.511,0.047,0.677,0.142c0.167,0.095,0.31,0.222,0.433,0.38
					c0.15,0.19,0.284,0.332,0.401,0.427c0.117,0.096,0.258,0.143,0.424,0.143c0.23,0,0.407-0.061,0.532-0.178
					c0.124-0.119,0.186-0.272,0.186-0.457c0-0.171-0.058-0.345-0.175-0.523c-0.117-0.178-0.287-0.34-0.51-0.486
					c-0.223-0.147-0.503-0.264-0.837-0.35c-0.334-0.088-0.711-0.131-1.131-0.131c-0.534,0-0.99,0.086-1.367,0.259
					c-0.378,0.172-0.664,0.403-0.859,0.691c-0.194,0.289-0.291,0.596-0.291,0.92c0,0.364,0.105,0.671,0.315,0.921
					c0.21,0.249,0.49,0.451,0.84,0.602c0.35,0.153,0.805,0.299,1.362,0.436c0.495,0.119,0.85,0.244,1.066,0.375
					c0.216,0.131,0.324,0.338,0.324,0.623c0,0.186-0.104,0.351-0.311,0.496c-0.208,0.144-0.474,0.217-0.798,0.217
					c-0.4,0-0.716-0.071-0.947-0.214c-0.232-0.143-0.431-0.358-0.597-0.648c-0.082-0.149-0.17-0.267-0.261-0.35
					c-0.091-0.083-0.221-0.125-0.391-0.125c-0.194,0-0.355,0.064-0.481,0.19c-0.127,0.126-0.19,0.278-0.19,0.457
					c0,0.27,0.099,0.537,0.297,0.805c0.197,0.266,0.504,0.49,0.92,0.667c0.416,0.178,0.914,0.267,1.496,0.267
					c0.609,0,1.127-0.082,1.552-0.246c0.426-0.164,0.747-0.406,0.965-0.724c0.218-0.319,0.327-0.702,0.327-1.149
					c0-0.297-0.082-0.56-0.246-0.792C192.885,480.628,192.643,480.427,192.325,480.257z"/>
				<path style="fill:#FFFFFF;" d="M194.933,477.182c-0.238,0-0.431,0.081-0.579,0.243c-0.149,0.162-0.222,0.404-0.222,0.724v4.636
					c0,0.317,0.074,0.56,0.222,0.731c0.148,0.17,0.341,0.255,0.579,0.255c0.238,0,0.433-0.083,0.588-0.249
					c0.154-0.166,0.232-0.412,0.232-0.737v-4.683c0-0.289-0.077-0.514-0.232-0.677C195.366,477.263,195.171,477.182,194.933,477.182
					z"/>
				<path style="fill:#FFFFFF;" d="M194.951,474.844c-0.217,0-0.409,0.074-0.573,0.223s-0.246,0.337-0.246,0.567
					c0,0.254,0.08,0.45,0.24,0.588c0.16,0.138,0.353,0.208,0.579,0.208c0.218,0,0.406-0.071,0.564-0.211
					c0.158-0.14,0.238-0.335,0.238-0.585c0-0.257-0.081-0.453-0.244-0.588C195.347,474.911,195.161,474.844,194.951,474.844z"/>
				<path style="fill:#FFFFFF;" d="M202.074,477.182c-0.218,0-0.396,0.077-0.535,0.231c-0.139,0.155-0.208,0.372-0.208,0.653v0.22
					c-0.289-0.376-0.602-0.652-0.938-0.829c-0.337-0.175-0.735-0.264-1.193-0.264c-0.384,0-0.736,0.068-1.057,0.204
					c-0.32,0.137-0.603,0.339-0.849,0.609c-0.245,0.269-0.434,0.599-0.567,0.992c-0.133,0.391-0.198,0.831-0.198,1.318
					c0,0.653,0.108,1.228,0.326,1.727c0.217,0.499,0.529,0.886,0.934,1.163c0.406,0.277,0.88,0.416,1.422,0.416
					c0.451,0,0.84-0.091,1.166-0.273c0.327-0.182,0.614-0.447,0.864-0.797c-0.008,0.531-0.02,0.916-0.035,1.155
					c-0.016,0.24-0.07,0.464-0.163,0.673c-0.093,0.21-0.255,0.374-0.487,0.49c-0.232,0.117-0.557,0.175-0.977,0.175
					c-0.205,0-0.388-0.02-0.546-0.056c-0.158-0.038-0.294-0.095-0.406-0.172c-0.112-0.077-0.216-0.17-0.309-0.279
					c-0.093-0.109-0.183-0.217-0.27-0.324c-0.178-0.209-0.386-0.314-0.623-0.314c-0.189,0-0.352,0.062-0.486,0.187
					c-0.135,0.124-0.202,0.286-0.202,0.483c0,0.261,0.119,0.516,0.356,0.763c0.238,0.247,0.576,0.449,1.015,0.605
					c0.439,0.156,0.938,0.234,1.496,0.234c0.61,0,1.119-0.061,1.529-0.184c0.409-0.122,0.741-0.311,0.994-0.563
					c0.254-0.253,0.438-0.574,0.552-0.961c0.115-0.388,0.173-0.851,0.173-1.39v-4.707c0-0.384-0.052-0.678-0.155-0.882
					C202.594,477.285,202.387,477.182,202.074,477.182z M201.047,481.549c-0.151,0.291-0.345,0.508-0.585,0.653
					c-0.239,0.144-0.493,0.217-0.762,0.217c-0.455,0-0.826-0.168-1.113-0.505c-0.287-0.336-0.43-0.833-0.43-1.49
					c0-0.649,0.139-1.15,0.418-1.501c0.279-0.352,0.649-0.529,1.113-0.529c0.475,0,0.858,0.184,1.149,0.552
					c0.291,0.367,0.436,0.883,0.436,1.543C201.273,480.905,201.197,481.258,201.047,481.549z"/>
				<path style="fill:#FFFFFF;" d="M209.428,478.25c-0.166-0.339-0.418-0.602-0.754-0.789c-0.337-0.186-0.718-0.279-1.146-0.279
					c-0.439,0-0.828,0.089-1.166,0.264c-0.339,0.176-0.65,0.452-0.935,0.828v-0.196c0-0.193-0.035-0.358-0.104-0.493
					c-0.069-0.134-0.162-0.234-0.276-0.302c-0.115-0.068-0.244-0.101-0.387-0.101c-0.233,0-0.417,0.076-0.552,0.228
					c-0.134,0.152-0.202,0.383-0.202,0.692v4.683c0,0.317,0.075,0.56,0.226,0.731c0.151,0.17,0.342,0.255,0.576,0.255
					c0.241,0,0.438-0.082,0.59-0.246c0.152-0.164,0.228-0.411,0.228-0.74v-2.03c0-0.661,0.04-1.111,0.119-1.353
					c0.111-0.3,0.285-0.537,0.522-0.71c0.237-0.172,0.501-0.258,0.789-0.258c0.444,0,0.739,0.142,0.888,0.425
					c0.148,0.283,0.223,0.692,0.223,1.226v2.701c0,0.317,0.075,0.56,0.225,0.731c0.151,0.17,0.346,0.255,0.588,0.255
					c0.237,0,0.43-0.083,0.579-0.249c0.149-0.166,0.223-0.412,0.223-0.737v-3.015c0-0.357-0.017-0.649-0.048-0.879
					C209.604,478.663,209.535,478.449,209.428,478.25z"/>
				<path style="fill:#FFFFFF;" d="M216.272,480.694c0.234-0.121,0.35-0.385,0.35-0.794c0-0.438-0.113-0.87-0.339-1.294
					c-0.226-0.423-0.565-0.768-1.019-1.035c-0.453-0.268-0.996-0.4-1.629-0.4c-0.487,0-0.93,0.078-1.33,0.234
					c-0.4,0.157-0.736,0.381-1.009,0.674c-0.273,0.293-0.481,0.644-0.624,1.054c-0.142,0.409-0.214,0.853-0.214,1.332
					c0,1.017,0.289,1.823,0.866,2.416c0.578,0.593,1.388,0.891,2.428,0.891c0.455,0,0.858-0.059,1.208-0.178
					c0.35-0.119,0.641-0.268,0.872-0.448c0.232-0.18,0.405-0.368,0.52-0.564c0.115-0.197,0.172-0.367,0.172-0.513
					c0-0.167-0.051-0.294-0.154-0.386c-0.103-0.091-0.238-0.137-0.404-0.137c-0.154,0-0.273,0.036-0.356,0.107
					c-0.202,0.19-0.366,0.341-0.492,0.452c-0.128,0.111-0.266,0.216-0.416,0.312c-0.151,0.098-0.306,0.168-0.466,0.214
					c-0.161,0.045-0.338,0.067-0.532,0.067c-0.289,0-0.553-0.07-0.792-0.213c-0.24-0.142-0.431-0.354-0.576-0.635
					c-0.145-0.281-0.219-0.605-0.223-0.973h3.17C215.71,480.875,216.039,480.815,216.272,480.694z M212.117,479.955
					c0.056-0.546,0.212-0.96,0.471-1.238c0.259-0.279,0.591-0.418,0.995-0.418c0.423,0,0.764,0.137,1.024,0.412
					c0.259,0.275,0.409,0.69,0.448,1.244H212.117z"/>
				<path style="fill:#FFFFFF;" d="M222.659,474.773c-0.245,0-0.435,0.085-0.567,0.255c-0.133,0.17-0.199,0.421-0.199,0.754v2.392
					c-0.304-0.331-0.617-0.579-0.938-0.739c-0.32-0.159-0.714-0.24-1.181-0.24c-0.807,0-1.458,0.283-1.953,0.848
					c-0.495,0.566-0.742,1.356-0.742,2.369c0,0.479,0.062,0.923,0.187,1.335c0.124,0.412,0.307,0.77,0.549,1.074
					c0.241,0.305,0.527,0.54,0.858,0.704c0.33,0.164,0.689,0.246,1.077,0.246c0.293,0,0.563-0.04,0.81-0.122
					c0.248-0.081,0.477-0.2,0.689-0.357c0.212-0.156,0.426-0.359,0.644-0.608v0.161c0,0.297,0.072,0.525,0.217,0.686
					c0.145,0.16,0.328,0.24,0.549,0.24c0.226,0,0.41-0.078,0.552-0.231c0.143-0.155,0.214-0.386,0.214-0.695v-7.147
					c0-0.305-0.066-0.535-0.199-0.691C223.093,474.851,222.904,474.773,222.659,474.773z M221.593,481.615
					c-0.14,0.306-0.328,0.534-0.564,0.682c-0.235,0.149-0.495,0.223-0.781,0.223c-0.281,0-0.54-0.079-0.777-0.236
					c-0.238-0.155-0.425-0.388-0.561-0.697c-0.137-0.309-0.204-0.682-0.204-1.122c0-0.416,0.064-0.781,0.193-1.096
					c0.129-0.315,0.31-0.556,0.543-0.724c0.233-0.168,0.499-0.252,0.795-0.252c0.285,0,0.547,0.082,0.787,0.245
					c0.24,0.165,0.43,0.402,0.57,0.712c0.141,0.311,0.211,0.682,0.211,1.114C221.804,480.924,221.733,481.308,221.593,481.615z"/>
				<path style="fill:#FFFFFF;" d="M232.04,477.577c-0.406-0.254-0.878-0.382-1.416-0.382c-0.467,0-0.859,0.084-1.176,0.252
					c-0.317,0.168-0.627,0.411-0.932,0.727v-2.475c0-0.297-0.067-0.525-0.202-0.686c-0.135-0.16-0.326-0.24-0.576-0.24
					c-0.237,0-0.423,0.084-0.555,0.252c-0.132,0.168-0.198,0.416-0.198,0.745v7.076c0,0.305,0.068,0.535,0.205,0.692
					c0.136,0.156,0.32,0.234,0.549,0.234c0.226,0,0.412-0.078,0.558-0.234c0.146-0.157,0.22-0.388,0.22-0.692v-0.161
					c0.178,0.206,0.322,0.361,0.431,0.463c0.109,0.103,0.241,0.203,0.395,0.3c0.154,0.098,0.341,0.175,0.561,0.234
					c0.219,0.06,0.454,0.089,0.704,0.089c0.407,0,0.78-0.082,1.119-0.246c0.338-0.164,0.626-0.397,0.864-0.698
					c0.237-0.3,0.418-0.655,0.543-1.065c0.124-0.41,0.187-0.859,0.187-1.35c0-0.665-0.112-1.241-0.336-1.725
					C232.759,478.203,232.445,477.833,232.04,477.577z M231.25,481.988c-0.294,0.355-0.646,0.532-1.053,0.532
					c-0.479,0-0.866-0.174-1.161-0.521c-0.295-0.346-0.442-0.841-0.442-1.486c0-0.44,0.069-0.819,0.208-1.137
					c0.139-0.319,0.329-0.562,0.57-0.73c0.241-0.168,0.517-0.252,0.825-0.252c0.301,0,0.564,0.084,0.79,0.252
					c0.225,0.168,0.399,0.406,0.522,0.715c0.123,0.308,0.184,0.677,0.184,1.104C231.692,481.126,231.545,481.634,231.25,481.988z"/>
				<path style="fill:#FFFFFF;" d="M238.985,477.28c-0.113-0.066-0.23-0.098-0.353-0.098c-0.17,0-0.302,0.03-0.395,0.09
					c-0.093,0.059-0.181,0.173-0.264,0.344c-0.083,0.17-0.176,0.406-0.279,0.706l-1.3,3.71l-1.371-3.989
					c-0.091-0.277-0.195-0.49-0.314-0.638c-0.119-0.148-0.295-0.223-0.529-0.223c-0.134,0-0.264,0.035-0.389,0.107
					c-0.125,0.071-0.222,0.166-0.294,0.285c-0.071,0.118-0.107,0.246-0.107,0.385c0,0.13,0.062,0.341,0.184,0.629l1.995,5.022
					l-0.148,0.363c-0.111,0.265-0.209,0.466-0.294,0.602c-0.085,0.137-0.181,0.233-0.288,0.288c-0.107,0.056-0.254,0.084-0.44,0.084
					c-0.075,0-0.164-0.012-0.267-0.035c-0.083-0.024-0.169-0.037-0.256-0.037c-0.221,0-0.389,0.051-0.501,0.152
					c-0.113,0.101-0.169,0.245-0.169,0.43c0,0.273,0.118,0.461,0.357,0.565c0.237,0.103,0.593,0.154,1.068,0.154
					c0.487,0,0.873-0.074,1.161-0.223c0.287-0.148,0.517-0.361,0.692-0.638c0.174-0.277,0.352-0.659,0.535-1.145l2.113-5.533
					c0.051-0.142,0.094-0.283,0.13-0.421c0.036-0.139,0.061-0.246,0.077-0.321c0-0.123-0.031-0.239-0.092-0.35
					C239.184,477.434,239.097,477.346,238.985,477.28z"/>
			</g>
			<g>
				<path style="fill:#FFFFFF;" d="M261.389,474.768c-0.533,0-0.954,0.068-1.26,0.204c-0.307,0.137-0.527,0.354-0.654,0.653
					c-0.129,0.3-0.192,0.702-0.192,1.211v0.487h-0.386c-0.543,0-0.815,0.192-0.815,0.582c0,0.174,0.066,0.317,0.197,0.423
					c0.132,0.111,0.316,0.164,0.558,0.164h0.446v4.294c0,0.319,0.075,0.563,0.228,0.73c0.154,0.17,0.344,0.254,0.574,0.254
					c0.243,0,0.438-0.084,0.589-0.254c0.156-0.167,0.231-0.411,0.231-0.73v-4.294h0.395c0.29,0,0.517-0.035,0.681-0.107
					c0.166-0.071,0.245-0.241,0.245-0.503c0-0.374-0.306-0.56-0.926-0.56h-0.395v-0.386c0-0.322,0.043-0.568,0.122-0.74
					c0.087-0.172,0.273-0.259,0.566-0.259c0.107,0,0.241,0.014,0.389,0.035c0.156,0.026,0.267,0.037,0.33,0.037
					c0.134,0,0.252-0.054,0.349-0.16c0.101-0.107,0.15-0.236,0.15-0.384C262.81,474.998,262.339,474.768,261.389,474.768z"/>
				<path style="fill:#FFFFFF;" d="M266.55,477.434c-0.32-0.171-0.648-0.255-0.991-0.255c-0.342,0-0.611,0.084-0.818,0.255
					c-0.203,0.171-0.4,0.421-0.593,0.755c-0.014-0.334-0.08-0.584-0.198-0.755c-0.119-0.171-0.313-0.255-0.583-0.255
					c-0.526,0-0.788,0.364-0.788,1.093v4.514c0,0.323,0.077,0.569,0.225,0.734c0.15,0.168,0.341,0.25,0.579,0.25
					c0.237,0,0.431-0.081,0.586-0.247c0.151-0.163,0.234-0.41,0.234-0.737v-1.355c0-0.486,0.014-0.9,0.044-1.238
					c0.034-0.337,0.09-0.631,0.17-0.878c0.084-0.243,0.201-0.426,0.353-0.554c0.15-0.122,0.345-0.186,0.582-0.186
					c0.172,0,0.374,0.037,0.602,0.108c0.226,0.073,0.371,0.112,0.433,0.112c0.158,0,0.304-0.064,0.441-0.195
					c0.135-0.126,0.204-0.292,0.204-0.488C267.032,477.832,266.872,477.605,266.55,477.434z"/>
				<path style="fill:#FFFFFF;" d="M272.638,480.693c0.233-0.122,0.351-0.386,0.351-0.791c0-0.441-0.113-0.871-0.339-1.296
					c-0.222-0.424-0.566-0.77-1.018-1.034c-0.453-0.27-0.997-0.404-1.629-0.404c-0.488,0-0.931,0.078-1.33,0.234
					c-0.402,0.156-0.735,0.38-1.008,0.674c-0.276,0.295-0.484,0.643-0.624,1.055c-0.144,0.41-0.217,0.855-0.217,1.334
					c0,1.016,0.292,1.822,0.87,2.418c0.577,0.593,1.385,0.889,2.429,0.889c0.453,0,0.857-0.06,1.207-0.179
					c0.349-0.116,0.64-0.268,0.874-0.446c0.233-0.181,0.405-0.368,0.522-0.566c0.112-0.195,0.167-0.365,0.167-0.512
					c0-0.167-0.048-0.294-0.152-0.386c-0.105-0.092-0.238-0.139-0.406-0.139c-0.153,0-0.271,0.038-0.355,0.109
					c-0.202,0.189-0.368,0.34-0.494,0.449c-0.128,0.113-0.264,0.217-0.415,0.313c-0.15,0.097-0.307,0.17-0.466,0.213
					c-0.161,0.049-0.337,0.069-0.531,0.069c-0.29,0-0.552-0.07-0.793-0.212c-0.24-0.144-0.431-0.356-0.578-0.635
					c-0.144-0.28-0.216-0.607-0.222-0.974h3.171C272.077,480.874,272.404,480.813,272.638,480.693z M268.482,479.952
					c0.054-0.546,0.213-0.957,0.472-1.236c0.259-0.281,0.591-0.418,0.995-0.418c0.426,0,0.764,0.136,1.025,0.413
					c0.26,0.273,0.407,0.689,0.446,1.241H268.482z"/>
				<path style="fill:#FFFFFF;" d="M279.38,480.693c0.231-0.122,0.351-0.386,0.351-0.791c0-0.441-0.116-0.871-0.341-1.296
					c-0.222-0.424-0.563-0.77-1.013-1.034c-0.459-0.27-1.003-0.404-1.633-0.404c-0.486,0-0.932,0.078-1.331,0.234
					c-0.401,0.156-0.737,0.38-1.009,0.674c-0.273,0.295-0.481,0.643-0.623,1.055c-0.145,0.41-0.217,0.855-0.217,1.334
					c0,1.016,0.291,1.822,0.868,2.418c0.58,0.593,1.387,0.889,2.429,0.889c0.454,0,0.861-0.06,1.209-0.179
					c0.347-0.116,0.641-0.268,0.872-0.446c0.234-0.181,0.408-0.368,0.519-0.566c0.116-0.195,0.171-0.365,0.171-0.512
					c0-0.167-0.047-0.294-0.15-0.386c-0.104-0.092-0.239-0.139-0.406-0.139c-0.151,0-0.271,0.038-0.355,0.109
					c-0.203,0.189-0.368,0.34-0.493,0.449c-0.128,0.113-0.264,0.217-0.415,0.313c-0.153,0.097-0.307,0.17-0.469,0.213
					c-0.158,0.049-0.336,0.069-0.528,0.069c-0.291,0-0.555-0.07-0.795-0.212c-0.239-0.144-0.431-0.356-0.576-0.635
					c-0.143-0.28-0.218-0.607-0.222-0.974h3.171C278.817,480.874,279.145,480.813,279.38,480.693z M275.224,479.952
					c0.052-0.546,0.211-0.957,0.469-1.236c0.261-0.281,0.592-0.418,0.995-0.418c0.426,0,0.764,0.136,1.027,0.413
					c0.257,0.273,0.407,0.689,0.447,1.241H275.224z"/>
				<path style="fill:#FFFFFF;" d="M285.391,477.577c-0.42-0.256-0.883-0.386-1.379-0.386c-0.415,0-0.79,0.089-1.114,0.267
					c-0.331,0.176-0.649,0.452-0.953,0.828v-0.194c0-0.297-0.071-0.519-0.218-0.678c-0.143-0.156-0.329-0.234-0.56-0.234
					c-0.233,0-0.419,0.078-0.553,0.228c-0.134,0.155-0.2,0.383-0.2,0.692v6.996c0,0.355,0.051,0.62,0.146,0.807
					c0.102,0.183,0.301,0.275,0.607,0.275c0.518,0,0.778-0.359,0.778-1.069v-2.433c0.287,0.358,0.587,0.634,0.901,0.816
					c0.313,0.187,0.704,0.28,1.166,0.28c0.385,0,0.741-0.076,1.08-0.227c0.334-0.153,0.623-0.372,0.868-0.654
					c0.245-0.283,0.441-0.632,0.581-1.05c0.14-0.419,0.21-0.878,0.21-1.376c0-0.678-0.123-1.262-0.366-1.758
					C286.14,478.211,285.81,477.835,285.391,477.577z M284.915,481.581c-0.137,0.313-0.32,0.546-0.552,0.704
					c-0.229,0.154-0.48,0.233-0.748,0.233c-0.454,0-0.828-0.178-1.133-0.536c-0.307-0.358-0.46-0.862-0.46-1.504
					c0-0.686,0.154-1.204,0.462-1.558c0.306-0.35,0.684-0.527,1.13-0.527c0.281,0,0.541,0.084,0.77,0.248
					c0.229,0.163,0.411,0.397,0.541,0.705c0.13,0.306,0.197,0.674,0.197,1.102C285.122,480.888,285.053,481.267,284.915,481.581z"/>
				<path style="fill:#FFFFFF;" d="M288.365,477.179c-0.238,0-0.428,0.079-0.58,0.245c-0.146,0.162-0.222,0.403-0.222,0.721v4.642
					c0,0.313,0.076,0.556,0.222,0.729c0.152,0.17,0.342,0.254,0.58,0.254c0.238,0,0.432-0.082,0.588-0.25
					c0.154-0.165,0.231-0.41,0.231-0.732v-4.689c0-0.286-0.078-0.513-0.231-0.675C288.797,477.259,288.603,477.179,288.365,477.179z
					"/>
				<path style="fill:#FFFFFF;" d="M288.382,474.839c-0.217,0-0.408,0.076-0.571,0.222c-0.166,0.15-0.248,0.339-0.248,0.569
					c0,0.253,0.08,0.446,0.242,0.585c0.159,0.138,0.35,0.209,0.577,0.209c0.22,0,0.408-0.071,0.566-0.21
					c0.157-0.14,0.236-0.335,0.236-0.585c0-0.258-0.082-0.455-0.244-0.591C288.78,474.906,288.595,474.839,288.382,474.839z"/>
				<path style="fill:#FFFFFF;" d="M295.724,482.21l-1.662-2.614l0.861-0.789c0.438-0.396,0.659-0.714,0.659-0.951
					c0-0.192-0.068-0.355-0.2-0.483c-0.138-0.128-0.306-0.193-0.51-0.193c-0.169,0-0.313,0.043-0.431,0.13
					c-0.121,0.086-0.29,0.251-0.517,0.486l-1.823,1.914v-3.933c0-0.33-0.074-0.582-0.221-0.751
					c-0.148-0.172-0.344-0.257-0.593-0.257c-0.255,0-0.457,0.092-0.596,0.283c-0.135,0.189-0.207,0.463-0.207,0.821v6.915
					c0,0.323,0.073,0.569,0.215,0.734c0.141,0.168,0.339,0.25,0.588,0.25c0.212,0,0.406-0.084,0.566-0.254
					c0.165-0.167,0.248-0.407,0.248-0.718v-1.291l0.88-0.83l1.428,2.354c0.181,0.278,0.33,0.472,0.436,0.58
					c0.106,0.109,0.261,0.16,0.458,0.16c0.227,0,0.413-0.073,0.554-0.221c0.142-0.151,0.213-0.352,0.213-0.61
					c0-0.089-0.029-0.189-0.081-0.289C295.936,482.55,295.845,482.406,295.724,482.21z"/>
				<path style="fill:#FFFFFF;" d="M297.917,481.983c-0.25,0-0.458,0.087-0.63,0.262c-0.17,0.173-0.256,0.381-0.256,0.622
					c0,0.287,0.09,0.51,0.268,0.665c0.179,0.159,0.389,0.238,0.634,0.238c0.237,0,0.444-0.079,0.624-0.241
					c0.174-0.158,0.264-0.38,0.264-0.662c0-0.243-0.089-0.454-0.264-0.626C298.376,482.07,298.165,481.983,297.917,481.983z"/>
				<path style="fill:#FFFFFF;" d="M305.304,481.057c-0.167,0-0.308,0.054-0.422,0.156c-0.114,0.104-0.219,0.245-0.318,0.427
					c-0.178,0.309-0.381,0.538-0.616,0.689c-0.231,0.15-0.51,0.225-0.836,0.225c-0.239,0-0.462-0.045-0.665-0.141
					c-0.201-0.093-0.372-0.229-0.516-0.409c-0.143-0.18-0.252-0.398-0.325-0.652c-0.075-0.255-0.114-0.537-0.114-0.842
					c0-0.646,0.147-1.161,0.44-1.534c0.294-0.375,0.682-0.561,1.158-0.561c0.333,0,0.607,0.074,0.821,0.226
					c0.218,0.148,0.424,0.375,0.622,0.674c0.109,0.158,0.209,0.269,0.299,0.339c0.09,0.068,0.201,0.104,0.338,0.104
					c0.202,0,0.377-0.068,0.524-0.203c0.143-0.135,0.214-0.3,0.214-0.492c0-0.192-0.063-0.397-0.192-0.617
					c-0.128-0.218-0.314-0.424-0.556-0.62c-0.245-0.192-0.54-0.352-0.891-0.474c-0.353-0.123-0.737-0.184-1.158-0.184
					c-0.674,0-1.259,0.139-1.746,0.419c-0.486,0.279-0.859,0.674-1.113,1.184c-0.259,0.512-0.387,1.098-0.387,1.765
					c0,0.981,0.281,1.765,0.841,2.35c0.562,0.582,1.344,0.876,2.349,0.876c0.469,0,0.894-0.065,1.269-0.192
					c0.377-0.126,0.688-0.295,0.935-0.502c0.248-0.208,0.434-0.425,0.553-0.656c0.121-0.229,0.182-0.446,0.182-0.646
					c0-0.169-0.066-0.331-0.198-0.481C305.666,481.134,305.501,481.057,305.304,481.057z"/>
				<path style="fill:#FFFFFF;" d="M312.116,478.092c-0.288-0.29-0.629-0.517-1.027-0.674c-0.4-0.161-0.847-0.239-1.337-0.239
					c-0.482,0-0.923,0.078-1.326,0.234c-0.399,0.158-0.737,0.38-1.019,0.669c-0.281,0.288-0.498,0.637-0.649,1.046
					c-0.146,0.408-0.224,0.857-0.224,1.349c0,0.485,0.076,0.93,0.219,1.332c0.152,0.402,0.369,0.75,0.657,1.048
					c0.284,0.292,0.627,0.521,1.016,0.676c0.392,0.159,0.835,0.239,1.326,0.239c0.493,0,0.937-0.08,1.337-0.234
					c0.394-0.158,0.735-0.382,1.02-0.675c0.286-0.291,0.502-0.642,0.656-1.049c0.146-0.409,0.222-0.856,0.222-1.337
					c0-0.489-0.075-0.932-0.221-1.339C312.618,478.736,312.403,478.389,312.116,478.092z M310.924,482.009
					c-0.289,0.372-0.681,0.557-1.171,0.557c-0.324,0-0.604-0.086-0.845-0.253c-0.24-0.168-0.424-0.41-0.553-0.729
					c-0.129-0.316-0.194-0.684-0.194-1.108c0-0.428,0.066-0.803,0.197-1.124c0.131-0.322,0.314-0.564,0.556-0.728
					c0.242-0.164,0.522-0.246,0.839-0.246c0.49,0,0.882,0.182,1.171,0.555c0.29,0.367,0.436,0.881,0.436,1.543
					C311.36,481.127,311.214,481.64,310.924,482.009z"/>
				<path style="fill:#FFFFFF;" d="M322.041,477.453c-0.32-0.173-0.705-0.262-1.146-0.262c-0.381,0-0.726,0.081-1.039,0.241
					c-0.313,0.161-0.607,0.408-0.881,0.738c-0.192-0.326-0.432-0.573-0.725-0.736c-0.292-0.162-0.642-0.243-1.049-0.243
					c-0.394,0-0.748,0.079-1.07,0.241c-0.319,0.156-0.62,0.403-0.903,0.738v-0.153c0-0.261-0.074-0.466-0.221-0.615
					c-0.15-0.145-0.335-0.222-0.557-0.222c-0.227,0-0.413,0.078-0.556,0.239c-0.14,0.157-0.209,0.389-0.209,0.694v4.637
					c0,0.336,0.078,0.591,0.235,0.765c0.156,0.171,0.357,0.258,0.604,0.258c0.248,0,0.447-0.087,0.603-0.258
					c0.15-0.173,0.226-0.428,0.226-0.765v-2.189c0-0.684,0.087-1.207,0.254-1.567c0.168-0.369,0.516-0.551,1.048-0.551
					c0.264,0,0.459,0.073,0.582,0.22c0.121,0.142,0.198,0.331,0.227,0.552c0.027,0.226,0.04,0.544,0.04,0.953v2.582
					c0,0.342,0.078,0.595,0.233,0.767c0.148,0.17,0.349,0.255,0.594,0.255c0.254,0,0.455-0.085,0.611-0.255
					c0.156-0.173,0.231-0.425,0.231-0.767v-2.154c0-0.694,0.062-1.178,0.178-1.452c0.109-0.21,0.259-0.384,0.45-0.508
					c0.192-0.126,0.395-0.192,0.609-0.192c0.264,0,0.463,0.073,0.596,0.215c0.129,0.142,0.21,0.319,0.239,0.529
					c0.029,0.209,0.043,0.487,0.043,0.836v2.726c0,0.336,0.079,0.591,0.235,0.765c0.157,0.171,0.357,0.258,0.603,0.258
					c0.253,0,0.458-0.085,0.612-0.255c0.153-0.173,0.23-0.425,0.23-0.767v-3.164c0-0.629-0.068-1.09-0.206-1.385
					C322.599,477.878,322.359,477.627,322.041,477.453z"/>
			</g>
			<g>
				<path style="fill:#FFFFFF;" d="M243.729,480.084c-0.001-0.003-0.001-0.006-0.001-0.011
					C243.728,480.078,243.728,480.081,243.729,480.084z"/>
				<path style="fill:#FFFFFF;" d="M243.811,480.602c0.001,0,0.001,0,0.002,0c-0.031-0.148-0.055-0.294-0.074-0.439
					C243.758,480.309,243.782,480.456,243.811,480.602z"/>
				<path style="fill:#FFFFFF;" d="M244.347,482.106c-0.004-0.006-0.007-0.013-0.011-0.021
					C244.341,482.093,244.344,482.1,244.347,482.106z"/>
				<path style="fill:#FFFFFF;" d="M244.296,482.006c-0.014-0.027-0.027-0.056-0.041-0.084
					C244.269,481.952,244.282,481.978,244.296,482.006z"/>
				<path style="fill:#FFFFFF;" d="M243.962,481.181c0.079,0.25,0.175,0.492,0.286,0.724c-0.113-0.236-0.206-0.479-0.283-0.724
					C243.963,481.181,243.962,481.181,243.962,481.181z"/>
				<path style="fill:#FFFFFF;" d="M249.193,473.32l-0.076-0.259c0.299-0.063,0.524-0.329,0.524-0.646
					c0-0.364-0.296-0.659-0.661-0.659c-0.364,0-0.66,0.295-0.66,0.659c0,0.317,0.224,0.583,0.523,0.646l0.084,0.289
					c-1.021,0.14-1.835,0.539-1.835,0.539l0.144,0.441c0.618-0.206,1.154-0.331,1.64-0.383c0.476-0.051,0.834-0.073,1.126-0.073
					c0.313,0,0.544,0.025,0.809,0.07l0.075-0.477C250.887,473.466,250.155,473.241,249.193,473.32z"/>
				<path style="fill:#FFFFFF;" d="M243.909,475.827c-0.017,0.024-0.497,0.465-0.876,1.28c-0.016-0.025-0.035-0.051-0.056-0.074
					c-0.113-0.124-0.272-0.187-0.474-0.184c-0.002,0-0.006,0-0.009,0c-0.125,0-0.211-0.042-0.267-0.092
					c0.056-0.071,0.09-0.16,0.09-0.258c0-0.23-0.187-0.418-0.418-0.418c-0.23,0-0.418,0.188-0.418,0.418
					c0,0.231,0.187,0.418,0.418,0.418c0.036,0,0.071-0.006,0.104-0.013c0.103,0.114,0.266,0.214,0.505,0.209
					c0.123-0.001,0.213,0.03,0.273,0.097c0.069,0.076,0.093,0.185,0.1,0.267c-0.001,0.001-0.001,0.003-0.002,0.003
					c-0.272,0.743-0.194,1.669-0.194,1.669l0.661,0.026c0.013-0.337,0.062-0.927,0.232-1.394c0.329-0.906,0.741-1.472,0.758-1.496
					l0.004-0.005c0.024-0.031,0.047-0.06,0.071-0.089l-0.196-0.141L243.909,475.827z"/>
				<path style="fill:#FFFFFF;" d="M255.752,474.426c-0.23,0-0.418,0.187-0.418,0.418c0,0.036,0.006,0.07,0.015,0.103
					c-0.115,0.104-0.214,0.267-0.211,0.507c0.002,0.123-0.03,0.212-0.096,0.273c-0.053,0.047-0.12,0.072-0.185,0.088
					c-0.492-0.689-1.097-1.11-1.097-1.11l-0.474,0.508c0.358,0.326,0.725,0.734,1.08,1.244c0.246,0.352,0.499,0.806,0.71,1.259
					l0.64-0.304c0,0-0.292-0.722-0.704-1.37c0.071-0.025,0.143-0.064,0.207-0.12c0.125-0.113,0.187-0.273,0.183-0.474
					c-0.001-0.13,0.042-0.218,0.093-0.276c0.071,0.054,0.161,0.089,0.258,0.089c0.232,0,0.419-0.187,0.419-0.418
					C256.171,474.613,255.984,474.426,255.752,474.426z"/>
				<path style="fill:#FFFFFF;" d="M254.091,480.177c-0.881,0.429-2.33,0.996-4.238,1.262c-0.749,0.104-1.475,0.142-2.143,0.142
					c-0.869,0-1.637-0.065-2.227-0.139c-0.673-0.085-1.198-0.189-1.52-0.261c0.077,0.245,0.171,0.488,0.283,0.724
					c0.002,0.006,0.005,0.013,0.008,0.017c0.013,0.028,0.027,0.056,0.041,0.084c0.014,0.027,0.027,0.054,0.041,0.079
					c0.004,0.007,0.007,0.015,0.011,0.021c0.189,0.356,0.417,0.684,0.675,0.968c0.9,0.984,1.817,1.14,1.826,1.141l0.014,0.002
					l0.014,0.005c0.008,0.003,0.821,0.266,2.057,0.266c1.216,0,2.409-0.245,3.546-0.73c0.842-0.431,1.639-1.085,2.034-1.669
					c0.305-0.452,0.525-0.933,0.656-1.434c0.07-0.266,0.125-0.692,0.092-1.141C255.014,479.682,254.622,479.919,254.091,480.177z"/>
				<path style="fill:#FFFFFF;" d="M250.78,474.294c-0.265-0.043-0.477-0.068-0.777-0.068c-0.28,0-0.626,0.022-1.09,0.071
					c-0.464,0.048-0.982,0.17-1.583,0.372c-0.842,0.282-1.605,0.724-2.204,1.28l-0.02,0.019c-0.089,0.082-0.274,0.254-0.488,0.526
					c-0.026,0.037-0.408,0.578-0.71,1.408c-0.226,0.622-0.216,1.527-0.216,1.537v0.002c0,0.212,0.012,0.423,0.035,0.632
					c0,0.005,0,0.008,0.001,0.011c0.003,0.027,0.007,0.053,0.01,0.079c0.019,0.145,0.043,0.291,0.074,0.439
					c0.438,0.111,3.049,0.72,5.968,0.314c1.829-0.255,3.218-0.795,4.062-1.204c0.701-0.34,1.151-0.648,1.325-0.774
					c-0.173-0.643-0.651-1.65-1.089-2.279C252.825,474.868,251.474,474.408,250.78,474.294z M247.136,479.553
					c-0.972,0-1.76-0.787-1.76-1.759c0-0.972,0.788-1.761,1.76-1.761c0.973,0,1.761,0.789,1.761,1.761
					C248.896,478.767,248.108,479.553,247.136,479.553z M252.287,478.257c-0.601,0-1.089-0.489-1.089-1.09
					c0-0.601,0.488-1.09,1.089-1.09c0.6,0,1.089,0.488,1.089,1.09C253.376,477.768,252.887,478.257,252.287,478.257z"/>
			</g>
		</g>
	</g>
</g>
</svg>
